<?xml version="1.0" encoding="UTF-8" standalone="no"?>
<!-- Created with Inkscape (http://www.inkscape.org/) -->

<svg
   version="1.1"
   id="svg1"
   width="496"
   height="559"
   viewBox="0 0 496 559"
   sodipodi:docname="7.JPG"
   inkscape:version="1.4 (86a8ad7, 2024-10-11)"
   xmlns:inkscape="http://www.inkscape.org/namespaces/inkscape"
   xmlns:sodipodi="http://sodipodi.sourceforge.net/DTD/sodipodi-0.dtd"
   xmlns="http://www.w3.org/2000/svg"
   xmlns:svg="http://www.w3.org/2000/svg">
  <defs
     id="defs1" />
  <sodipodi:namedview
     id="namedview1"
     pagecolor="#ffffff"
     bordercolor="#000000"
     borderopacity="0.25"
     inkscape:showpageshadow="2"
     inkscape:pageopacity="0.0"
     inkscape:pagecheckerboard="0"
     inkscape:deskcolor="#d1d1d1"
     inkscape:zoom="1.3828265"
     inkscape:cx="247.68111"
     inkscape:cy="279.5"
     inkscape:window-width="1920"
     inkscape:window-height="991"
     inkscape:window-x="-9"
     inkscape:window-y="-9"
     inkscape:window-maximized="1"
     inkscape:current-layer="g1" />
  <g
     inkscape:groupmode="layer"
     inkscape:label="Image"
     id="g1">
    <path
       style="fill:#000000"
       d="M 183.64602,500.25409 181,497.80184 v -56.00921 -56.0092 l -3.75,-0.9648 c -25.19693,-6.48264 -33.48588,-8.95035 -47.05126,-14.00769 -21.96519,-8.18889 -43.627459,-19.02657 -61.2646,-30.65081 -24.47954,-16.13392 -26.20213,-19.28579 -18.85887,-34.50669 8.05204,-16.69001 17.53702,-20.75152 30.154771,-12.91239 27.544319,17.11269 42.334049,25.02793 59.516599,31.85242 93.03302,36.95045 192.54679,25.88005 270.52703,-30.09475 18.22345,-13.08093 28.10714,-10.99234 36.10725,7.63009 6.5753,15.3058 4.96989,18.51359 -17.38092,34.72904 -29.92179,21.70816 -64.40395,37.27291 -103.72578,46.82031 l -9.22579,2.24003 -0.27421,55.98112 -0.27422,55.98112 -2.80576,2.41296 c -3.44287,2.96086 -7.56662,3.08777 -11.05938,0.34037 L 299,498.56118 v -60.49316 c 0,-71.397 -1.61138,-64.34257 15.5,-67.85696 42.20442,-8.66806 91.47104,-32.0245 118.42831,-56.14477 0.23556,-0.21077 -0.8392,-3.03516 -2.38838,-6.27641 l -2.81668,-5.89317 -7.11162,5.17563 c -98.53473,71.71061 -246.74245,72.06897 -345.89306,0.83634 -2.64185,-1.89798 -4.95515,-3.28245 -5.14067,-3.07661 -7.9221,8.79034 -6.61558,12.3628 8.088911,22.1178 31.858209,21.13483 66.599749,35.28584 108.648159,44.25485 12.63758,2.69562 11.67686,-2.74931 11.68129,66.20457 0.003,40.53339 -0.33332,58.94271 -1.10653,60.63973 -2.2464,4.9303 -9.07613,6.06745 -13.24371,2.20507 z M 239,334.0826 c -47.21197,-9.13109 -65.4747,-57.21303 -33.74176,-88.83498 45.36867,-45.20999 124.92387,4.55609 95.5082,59.74555 C 290.24298,324.7372 261.25873,338.38758 239,334.0826 Z m 22.8188,-17.055 c 22.8155,-6.44802 34.47103,-31.54867 24.11961,-51.9426 -12.96136,-25.53594 -49.78036,-29.63174 -69.92402,-7.77845 -26.78423,29.05747 5.47552,71.11862 45.80441,59.72105 z m -24.0886,-7.74141 c -11.28767,-4.64176 -16.05005,-9.97924 -13.7844,-15.449 2.4508,-5.91675 7.64414,-6.2494 15.89318,-1.01801 6.30383,3.99777 12.26665,3.96686 18.26054,-0.0946 11.03505,-7.47744 20.77028,2.44606 11.03131,11.24464 -8.30606,7.50402 -20.89756,9.63612 -31.40063,5.31701 z m 5.13664,-105.59456 c -2.63129,-1.53688 -60.04855,-61.90871 -63.6438,-66.91877 C 164.08005,115.67075 175.73894,86.429603 203,77.138913 c 12.98533,-4.42545 28.74739,-1.82309 39.78158,6.56805 l 5.28159,4.01648 5.40423,-4.08024 c 31.14961,-23.51818 77.4438,3.7389 69.47321,40.904437 -1.96921,9.18213 -7.45182,15.56007 -62.67386,72.9087 -7.28988,7.57061 -12.13876,9.30822 -17.39991,6.23529 z m 32.29213,-45.00023 c 29.14555,-29.89121 31.85534,-33.54036 31.81907,-42.84925 -0.093,-23.853431 -28.97466,-33.491247 -47.41114,-15.82108 -10.52384,10.0864 -12.12273,10.18222 -21.16892,1.26857 -22.27012,-21.943817 -56.3727,-5.344101 -46.79121,22.77602 1.46438,4.29774 54.06702,61.64068 56.54509,61.64068 0.36635,0 12.51955,-12.15672 27.00711,-27.01494 z m 65.01534,-24.29951 c -7.29208,-7.76206 -0.17001,-13.11542 16.67101,-12.53088 13.38882,0.46471 18.8081,6.19191 12.15468,12.84533 -3.24711,3.24711 -25.70998,3.00207 -28.82569,-0.31445 z m -212.81988,-1.3252 c -5.47386,-1.20439 -7.66211,-7.72806 -4.015,-11.96962 l 2.48561,-2.89073 h 12.17233 c 13.0489,0 17.00263,1.74402 17.00263,7.5 0,6.22098 -14.85218,10.17522 -27.64557,7.36035 z M 315.31191,71.195443 c -7.64988,-3.21654 -6.79765,-7.87363 3.17422,-17.34594 9.39306,-8.922488 15.51376,-9.911629 19.04747,-3.078184 3.66304,7.083544 -14.42051,23.704274 -22.22169,20.424124 z M 173.76516,68.878283 C 158.98082,63.019543 152.25574,43.706339 165,43.706339 c 4.89617,0 20.02293,13.612054 19.9682,17.968694 -0.0687,5.46548 -5.98648,9.27047 -11.20304,7.20325 z M 246.5,43.916872 c -9.7387,-1.997372 -9.60657,-27.388794 0.15527,-29.838859 6.59804,-1.656002 10.30878,3.706433 10.32999,14.927986 0.0213,11.242099 -3.55773,16.331685 -10.48526,14.910873 z"
       id="path1" />
  </g>
</svg>
