<svg version="1.1" id="Layer_1" xmlns="http://www.w3.org/2000/svg" xmlns:xlink="http://www.w3.org/1999/xlink" x="0px" y="0px"
	 width="100%" viewBox="0 0 500 500" enable-background="new 0 0 500 500" xml:space="preserve">
<path fill="#FFFFFE" opacity="1.000000" stroke="none" 
	d="
M334.000000,501.000000 
	C222.666687,501.000000 111.833389,501.000000 1.000040,501.000000 
	C1.000000,417.666718 1.000000,334.333435 1.000000,251.000137 
	C1.000000,167.666824 1.000000,84.333511 1.000000,1.000149 
	C167.666565,1.000099 334.333130,1.000099 500.999756,1.000050 
	C500.999847,167.666519 500.999847,334.333038 500.999939,500.999786 
	C445.500000,501.000000 390.000000,501.000000 334.000000,501.000000 
M36.604282,445.757050 
	C36.604282,450.326599 36.604282,454.896149 36.604282,460.088928 
	C43.087124,459.767578 49.167870,459.466156 56.152168,459.242340 
	C67.712128,459.215363 79.272087,459.188385 91.564995,459.581635 
	C95.386200,459.654999 99.209152,459.839294 103.028267,459.779327 
	C111.804710,459.641602 120.579292,459.384888 130.245529,459.239258 
	C183.000565,459.239258 235.755600,459.239258 289.191193,459.239258 
	C288.686737,456.635101 288.387756,454.731903 287.945190,452.862732 
	C283.528229,434.208740 282.306091,415.364899 285.082306,396.380402 
	C289.323639,367.376617 302.593658,343.628082 327.977539,328.207336 
	C343.288666,318.905823 359.378601,310.754791 375.606873,303.125519 
	C399.394043,291.942657 423.723083,281.917450 447.608978,270.937347 
	C458.189941,266.073395 468.234070,260.045959 476.300293,251.332245 
	C483.176361,243.904251 484.231903,235.704224 478.041656,227.886581 
	C474.100433,222.909195 469.003265,218.580078 463.731873,214.972015 
	C446.459686,203.149780 426.759918,196.505447 406.799805,191.417358 
	C369.604370,181.935760 332.049255,173.873795 294.747467,164.795258 
	C283.804596,162.131958 272.947205,158.673553 262.541199,154.388275 
	C254.139969,150.928558 254.248001,145.489182 261.925812,140.691177 
	C264.456024,139.110001 267.097443,137.453766 269.920898,136.638763 
	C281.869263,133.189804 293.905365,130.044739 306.729218,126.819412 
	C314.359161,125.393768 321.989075,123.968124 329.619019,122.542488 
	C329.573273,122.155685 329.527527,121.768890 329.481812,121.382095 
	C319.995880,122.298134 310.509979,123.214180 300.196838,124.100098 
	C296.953674,124.710297 293.713531,125.337128 290.466797,125.927658 
	C279.377838,127.944572 268.095734,129.252090 257.267548,132.218323 
	C250.744217,134.005310 244.379623,137.643814 238.936783,141.762650 
	C232.910629,146.322876 233.640533,153.160004 239.843796,157.723602 
	C243.702209,160.562134 247.776367,163.471420 252.212158,165.101059 
	C277.973755,174.565430 303.906097,183.563522 329.711517,192.910324 
	C348.945190,199.876846 368.252930,206.698380 387.157471,214.483444 
	C394.229279,217.395660 400.764099,222.260010 406.618103,227.307785 
	C413.092804,232.890762 412.055847,240.201508 404.841095,244.746109 
	C400.784668,247.301300 396.446930,249.733078 391.900909,251.130920 
	C373.784912,256.701416 355.578400,261.990387 337.330017,267.114990 
	C296.494232,278.582642 255.451187,289.345154 214.805542,301.446045 
	C185.899689,310.051880 158.095444,321.801422 131.562576,336.292389 
	C122.234482,341.386902 113.169312,346.962860 103.963783,351.339844 
	C103.603706,339.634827 103.271362,327.928802 102.853569,316.225830 
	C102.791046,314.474487 102.327744,312.737488 102.148071,310.115997 
	C102.072533,308.344482 101.996986,306.572937 102.145294,303.931274 
	C101.577995,296.650879 101.196144,289.350250 100.404381,282.094330 
	C98.806747,267.453186 98.687332,252.955276 102.943176,238.649750 
	C105.148247,231.237640 109.424377,226.270477 117.080414,224.021286 
	C122.936539,222.300858 128.888062,220.379471 134.205750,217.467499 
	C143.652695,212.294296 144.648056,206.425583 138.529617,197.489227 
	C137.129303,195.444016 135.591583,193.492844 133.963974,190.855408 
	C132.900711,188.977402 131.837463,187.099396 130.299652,184.736404 
	C126.569084,179.242615 122.848877,173.741745 119.104851,168.257141 
	C115.747932,163.339600 111.404037,160.261536 105.174637,159.870468 
	C100.270981,159.562637 95.409485,158.583405 90.739922,157.160187 
	C89.739502,155.069611 89.209007,151.698624 87.651161,151.126877 
	C82.844780,149.362885 77.683662,148.095612 72.586662,147.762421 
	C69.316330,147.548645 65.963753,149.697479 62.564415,150.129974 
	C54.724831,151.127380 50.439873,155.392319 50.235062,163.387833 
	C50.004177,172.401428 52.985390,180.262695 59.177475,187.722183 
	C58.810600,191.820602 58.443722,195.919037 57.503632,200.492447 
	C57.315269,201.203262 57.126904,201.914093 56.212837,202.504776 
	C42.803726,205.519852 33.103165,212.347519 30.649666,227.624573 
	C26.160444,242.442078 20.025518,256.875702 20.024460,273.675049 
	C20.000534,276.089661 19.976608,278.504272 19.832571,281.749969 
	C19.342789,286.360321 18.831099,290.968445 18.368067,295.581482 
	C17.557646,303.655457 16.513344,311.718445 16.083261,319.813446 
	C15.826559,324.645142 18.785322,326.990112 24.473513,327.897247 
	C28.885994,328.600891 30.182236,325.535370 30.637590,322.367554 
	C31.138103,318.885590 30.793303,315.277252 30.755480,311.724640 
	C30.734816,309.783630 30.226866,307.779541 30.560059,305.914948 
	C31.929348,298.252014 33.537079,290.631744 35.590912,282.485870 
	C36.048367,279.945404 36.505825,277.404938 37.340149,274.247070 
	C38.021091,273.094421 38.702034,271.941772 39.173817,271.608398 
	C39.407375,274.053741 39.640930,276.499054 39.631214,279.692444 
	C39.718773,283.145172 39.806335,286.597900 39.616886,290.803162 
	C39.758202,294.198029 39.899521,297.592865 40.161373,301.520142 
	C40.432537,301.987640 40.703697,302.455109 40.514343,303.292084 
	C40.419655,303.862152 40.324966,304.432190 40.031731,305.920319 
	C39.737011,314.708588 39.401222,323.495697 39.155193,332.285339 
	C38.384026,359.835907 37.652779,387.387604 36.882381,414.938171 
	C36.831581,416.754883 36.428917,418.567902 36.451817,420.379364 
	C36.543064,427.597443 36.738091,434.814209 36.788353,442.773254 
	C36.826984,443.519257 36.865612,444.265228 36.604282,445.757050 
M354.500580,425.964661 
	C362.127289,425.964661 369.754028,425.964661 376.403442,425.964661 
	C380.428589,415.897614 384.135132,406.627411 388.075531,396.772400 
	C377.324615,400.444672 371.203979,408.526764 365.171387,417.461487 
	C361.268890,406.785583 364.270111,396.818970 364.876556,386.530853 
	C356.853973,391.535858 354.490631,395.311707 347.363892,413.877106 
	C337.986298,400.483368 330.745178,396.781738 319.101074,399.962524 
	C329.706238,405.545074 333.645355,414.966888 335.275024,425.964752 
	C341.536377,425.964752 347.518677,425.964752 354.500580,425.964661 
M200.637650,282.194458 
	C202.505600,277.568359 204.307877,272.914215 206.265045,268.326172 
	C207.528793,265.363617 209.019485,262.497894 211.020294,258.307434 
	C201.504791,261.419189 196.735992,267.864716 192.134018,274.515564 
	C191.725189,274.357910 191.316360,274.200256 190.907532,274.042603 
	C190.907532,266.123657 190.907532,258.204712 190.907532,249.891785 
	C182.928528,255.378937 179.483551,263.444305 177.180756,272.552887 
	C169.177826,260.023712 163.986664,256.215759 154.580780,256.121704 
	C163.736343,262.580566 165.453278,272.285461 167.147125,282.219299 
	C178.188354,282.219299 188.999222,282.219299 200.637650,282.194458 
M480.544464,181.075958 
	C478.664551,182.846451 476.784637,184.616928 475.025818,186.273361 
	C472.770020,182.805939 470.534332,179.369492 468.298645,175.933029 
	C467.844666,176.116135 467.390656,176.299240 466.936646,176.482346 
	C466.936646,180.351883 466.936646,184.221420 466.936646,188.236755 
	C463.464447,185.304291 460.480896,182.784500 457.497345,180.264709 
	C457.257111,180.569153 457.016876,180.873581 456.776642,181.178009 
	C458.414276,185.280029 460.051910,189.382034 461.655243,193.398178 
	C467.881958,193.398178 473.959351,193.398178 479.397156,193.398178 
	C481.537659,188.344208 483.474823,183.770416 485.464355,179.072922 
	C484.184937,179.568970 482.674713,180.154510 480.544464,181.075958 
z"/>
<path fill="#FEBA5E" opacity="1.000000" stroke="none" 
	d="
M103.984100,352.319000 
	C113.169312,346.962860 122.234482,341.386902 131.562576,336.292389 
	C158.095444,321.801422 185.899689,310.051880 214.805542,301.446045 
	C255.451187,289.345154 296.494232,278.582642 337.330017,267.114990 
	C355.578400,261.990387 373.784912,256.701416 391.900909,251.130920 
	C396.446930,249.733078 400.784668,247.301300 404.841095,244.746109 
	C412.055847,240.201508 413.092804,232.890762 406.618103,227.307785 
	C400.764099,222.260010 394.229279,217.395660 387.157471,214.483444 
	C368.252930,206.698380 348.945190,199.876846 329.711517,192.910324 
	C303.906097,183.563522 277.973755,174.565430 252.212158,165.101059 
	C247.776367,163.471420 243.702209,160.562134 239.843796,157.723602 
	C233.640533,153.160004 232.910629,146.322876 238.936783,141.762650 
	C244.379623,137.643814 250.744217,134.005310 257.267548,132.218323 
	C268.095734,129.252090 279.377838,127.944572 290.466797,125.927658 
	C293.713531,125.337128 296.953674,124.710297 300.861328,124.355545 
	C302.987000,125.336845 304.448181,126.062714 305.909393,126.788582 
	C293.905365,130.044739 281.869263,133.189804 269.920898,136.638763 
	C267.097443,137.453766 264.456024,139.110001 261.925812,140.691177 
	C254.248001,145.489182 254.139969,150.928558 262.541199,154.388275 
	C272.947205,158.673553 283.804596,162.131958 294.747467,164.795258 
	C332.049255,173.873795 369.604370,181.935760 406.799805,191.417358 
	C426.759918,196.505447 446.459686,203.149780 463.731873,214.972015 
	C469.003265,218.580078 474.100433,222.909195 478.041656,227.886581 
	C484.231903,235.704224 483.176361,243.904251 476.300293,251.332245 
	C468.234070,260.045959 458.189941,266.073395 447.608978,270.937347 
	C423.723083,281.917450 399.394043,291.942657 375.606873,303.125519 
	C359.378601,310.754791 343.288666,318.905823 327.977539,328.207336 
	C302.593658,343.628082 289.323639,367.376617 285.082306,396.380402 
	C282.306091,415.364899 283.528229,434.208740 287.945190,452.862732 
	C288.387756,454.731903 288.686737,456.635101 289.191193,459.239258 
	C235.755600,459.239258 183.000565,459.239258 129.700439,458.833710 
	C127.365814,456.667023 125.816040,454.522858 123.738235,453.222260 
	C119.004631,450.259155 114.012016,447.709839 109.048523,444.700043 
	C108.271606,443.443329 107.570816,442.478943 106.905495,441.018921 
	C106.308319,425.841309 105.566055,411.163025 105.073814,396.476379 
	C104.580643,381.761597 104.337074,367.038483 103.984100,352.319000 
z"/>
<path fill="#4B4954" opacity="1.000000" stroke="none" 
	d="
M31.021885,227.008240 
	C33.103165,212.347519 42.803726,205.519852 56.861420,202.791718 
	C64.267601,204.678238 70.889412,205.094177 77.350639,200.785400 
	C78.861931,200.620590 79.999702,200.415909 81.135368,200.426971 
	C91.864670,200.531265 102.593605,200.673080 113.322670,200.802063 
	C115.277107,200.825577 117.572342,201.274017 117.193726,197.769470 
	C121.875938,192.412811 127.787315,191.381119 134.117111,191.498398 
	C135.591583,193.492844 137.129303,195.444016 138.529617,197.489227 
	C144.648056,206.425583 143.652695,212.294296 134.205750,217.467499 
	C128.888062,220.379471 122.936539,222.300858 117.080414,224.021286 
	C109.424377,226.270477 105.148247,231.237640 102.943176,238.649750 
	C98.687332,252.955276 98.806747,267.453186 100.404381,282.094330 
	C101.196144,289.350250 101.577995,296.650879 101.584785,304.368713 
	C88.104523,305.560181 75.182373,306.882324 62.266014,306.828033 
	C55.833874,306.800964 49.412334,304.252228 42.925949,302.517822 
	C41.924213,301.790222 40.982525,301.388977 40.040840,300.987732 
	C39.899521,297.592865 39.758202,294.198029 40.064915,290.150879 
	C40.300125,285.980499 40.087307,282.462463 39.874489,278.944397 
	C39.640930,276.499054 39.407375,274.053741 39.466118,270.908875 
	C38.823425,263.393341 38.241283,256.504791 36.860294,249.780365 
	C35.285725,242.113342 32.999065,234.592575 31.021885,227.008240 
z"/>
<path fill="#F9D787" opacity="1.000000" stroke="none" 
	d="
M103.973938,351.829407 
	C104.337074,367.038483 104.580643,381.761597 105.073814,396.476379 
	C105.566055,411.163025 106.308319,425.841309 106.472626,441.017334 
	C101.340057,441.695618 96.675812,441.879822 91.791382,441.756775 
	C91.083740,440.810425 90.278847,440.226959 90.155754,439.524078 
	C87.719200,425.610199 85.496429,411.657654 82.934784,397.767456 
	C81.516853,390.078949 79.558556,382.490082 78.015274,374.535645 
	C78.353531,373.426941 78.777596,372.593750 78.648232,371.857819 
	C76.958755,362.246429 75.244644,352.638580 73.419006,343.052246 
	C72.571373,338.601318 71.468567,334.198975 70.481438,329.774628 
	C68.882233,331.320496 68.370796,332.682709 68.152252,334.090424 
	C65.817703,349.128632 63.432423,364.160187 61.280022,379.224854 
	C60.501415,384.674316 60.311115,390.207886 59.778732,396.087585 
	C59.160973,397.847137 58.334213,399.179077 58.117310,400.603882 
	C56.340630,412.274811 54.794842,423.982330 52.879463,435.629456 
	C52.503597,437.915039 50.831947,439.987579 49.312691,442.108154 
	C44.876537,442.049103 40.885616,442.040283 36.894695,442.031464 
	C36.738091,434.814209 36.543064,427.597443 36.451817,420.379364 
	C36.428917,418.567902 36.831581,416.754883 36.882381,414.938171 
	C37.652779,387.387604 38.384026,359.835907 39.155193,332.285339 
	C39.401222,323.495697 39.737011,314.708588 40.359093,305.726624 
	C41.946350,307.015778 42.986950,309.468842 44.504478,309.811859 
	C50.748001,311.223083 57.140858,312.851257 63.470695,312.818787 
	C76.333191,312.752838 89.190437,311.662170 102.049843,310.993835 
	C102.327744,312.737488 102.791046,314.474487 102.853569,316.225830 
	C103.271362,327.928802 103.603706,339.634827 103.973938,351.829407 
z"/>
<path fill="#FEBA5E" opacity="1.000000" stroke="none" 
	d="
M49.757919,442.158356 
	C50.831947,439.987579 52.503597,437.915039 52.879463,435.629456 
	C54.794842,423.982330 56.340630,412.274811 58.117310,400.603882 
	C58.334213,399.179077 59.160973,397.847137 59.960613,395.822449 
	C66.092033,388.400635 71.967941,381.628479 77.843842,374.856323 
	C79.558556,382.490082 81.516853,390.078949 82.934784,397.767456 
	C85.496429,411.657654 87.719200,425.610199 90.155754,439.524078 
	C90.278847,440.226959 91.083740,440.810425 91.768181,441.974426 
	C91.965179,442.499359 91.893227,442.931305 91.658279,443.272888 
	C91.226242,448.796753 91.029144,453.979095 90.832047,459.161407 
	C79.272087,459.188385 67.712128,459.215363 55.631699,458.791565 
	C53.421619,453.892181 51.732018,449.443573 50.052315,444.637451 
	C49.960789,443.572754 49.859352,442.865570 49.757919,442.158356 
z"/>
<path fill="#147D66" opacity="1.000000" stroke="none" 
	d="
M354.000793,425.964722 
	C347.518677,425.964752 341.536377,425.964752 335.275024,425.964752 
	C333.645355,414.966888 329.706238,405.545074 319.101074,399.962524 
	C330.745178,396.781738 337.986298,400.483368 347.363892,413.877106 
	C354.490631,395.311707 356.853973,391.535858 364.876556,386.530853 
	C364.270111,396.818970 361.268890,406.785583 365.171387,417.461487 
	C371.203979,408.526764 377.324615,400.444672 388.075531,396.772400 
	C384.135132,406.627411 380.428589,415.897614 376.403442,425.964661 
	C369.754028,425.964661 362.127289,425.964661 354.000793,425.964722 
z"/>
<path fill="#422B19" opacity="1.000000" stroke="none" 
	d="
M59.268345,186.807068 
	C52.985390,180.262695 50.004177,172.401428 50.235062,163.387833 
	C50.439873,155.392319 54.724831,151.127380 62.564415,150.129974 
	C65.963753,149.697479 69.316330,147.548645 72.586662,147.762421 
	C77.683662,148.095612 82.844780,149.362885 87.651161,151.126877 
	C89.209007,151.698624 89.739502,155.069611 90.385254,157.717667 
	C88.660500,160.160751 87.290413,162.046356 85.759018,164.296631 
	C85.597717,168.736191 85.597717,172.811081 85.597717,177.546539 
	C83.900589,175.575516 82.719917,174.204300 80.552803,171.687439 
	C78.448738,185.214050 70.964729,189.394913 59.268345,186.807068 
z"/>
<path fill="#147C65" opacity="1.000000" stroke="none" 
	d="
M200.223862,282.206879 
	C188.999222,282.219299 178.188354,282.219299 167.147125,282.219299 
	C165.453278,272.285461 163.736343,262.580566 154.580780,256.121704 
	C163.986664,256.215759 169.177826,260.023712 177.180756,272.552887 
	C179.483551,263.444305 182.928528,255.378937 190.907532,249.891785 
	C190.907532,258.204712 190.907532,266.123657 190.907532,274.042603 
	C191.316360,274.200256 191.725189,274.357910 192.134018,274.515564 
	C196.735992,267.864716 201.504791,261.419189 211.020294,258.307434 
	C209.019485,262.497894 207.528793,265.363617 206.265045,268.326172 
	C204.307877,272.914215 202.505600,277.568359 200.223862,282.206879 
z"/>
<path fill="#FCC6AA" opacity="1.000000" stroke="none" 
	d="
M35.057098,282.995758 
	C33.537079,290.631744 31.929348,298.252014 30.560059,305.914948 
	C30.226866,307.779541 30.734816,309.783630 30.755480,311.724640 
	C30.793303,315.277252 31.138103,318.885590 30.637590,322.367554 
	C30.182236,325.535370 28.885994,328.600891 24.473513,327.897247 
	C18.785322,326.990112 15.826559,324.645142 16.083261,319.813446 
	C16.513344,311.718445 17.557646,303.655457 18.368067,295.581482 
	C18.831099,290.968445 19.342789,286.360321 20.335575,281.354004 
	C25.578085,281.637268 30.317591,282.316498 35.057098,282.995758 
z"/>
<path fill="#463F46" opacity="1.000000" stroke="none" 
	d="
M30.835777,227.316406 
	C32.999065,234.592575 35.285725,242.113342 36.860294,249.780365 
	C38.241283,256.504791 38.823425,263.393341 39.570702,270.499268 
	C38.702034,271.941772 38.021091,273.094421 36.742374,274.497406 
	C30.803368,274.086029 25.462135,273.424316 20.120901,272.762604 
	C20.025518,256.875702 26.160444,242.442078 30.835777,227.316406 
z"/>
<path fill="#EBB27A" opacity="1.000000" stroke="none" 
	d="
M85.920319,163.931976 
	C87.290413,162.046356 88.660500,160.160751 90.279922,158.088776 
	C95.409485,158.583405 100.270981,159.562637 105.174637,159.870468 
	C111.404037,160.261536 115.747932,163.339600 119.104851,168.257141 
	C122.848877,173.741745 126.569084,179.242615 130.484039,185.346954 
	C130.165924,186.285782 129.610580,186.958160 129.168823,186.890381 
	C123.099777,185.959091 118.354431,187.956177 114.805923,192.742737 
	C112.581154,186.813171 110.240967,181.297134 108.503372,175.597382 
	C107.483849,172.253067 105.761711,170.558304 102.362473,170.259384 
	C97.889244,169.866028 93.367203,169.573639 90.880920,164.790344 
	C90.590027,164.230698 89.064362,164.312836 87.748337,164.043335 
	C86.897141,163.970154 86.408737,163.951065 85.920319,163.931976 
z"/>
<path fill="#F8C2A5" opacity="1.000000" stroke="none" 
	d="
M85.759018,164.296646 
	C86.408737,163.951065 86.897141,163.970154 87.697128,164.476089 
	C88.362022,171.353455 88.930161,177.741211 89.011833,184.135208 
	C89.104485,191.388550 86.582306,194.476517 79.821007,197.000702 
	C78.674530,197.428726 77.932785,198.940857 76.538467,199.953156 
	C74.093651,199.958664 72.114418,199.960785 70.135193,199.968140 
	C66.115738,199.983078 62.096294,200.000839 58.076847,200.017456 
	C58.443722,195.919037 58.810600,191.820602 59.222908,187.264618 
	C70.964729,189.394913 78.448738,185.214050 80.552803,171.687439 
	C82.719917,174.204300 83.900589,175.575516 85.597717,177.546539 
	C85.597717,172.811081 85.597717,168.736191 85.759018,164.296646 
z"/>
<path fill="#A4734B" opacity="1.000000" stroke="none" 
	d="
M91.198517,459.371521 
	C91.029144,453.979095 91.226242,448.796753 91.771439,443.685089 
	C93.376396,444.197876 94.623100,444.982513 95.891960,445.020172 
	C100.298706,445.150909 104.713142,445.022369 109.124649,444.992432 
	C114.012016,447.709839 119.004631,450.259155 123.738235,453.222260 
	C125.816040,454.522858 127.365814,456.667023 129.254990,458.802307 
	C120.579292,459.384888 111.804710,459.641602 103.028267,459.779327 
	C99.209152,459.839294 95.386200,459.654999 91.198517,459.371521 
z"/>
<path fill="#EDC254" opacity="1.000000" stroke="none" 
	d="
M102.098953,310.554932 
	C89.190437,311.662170 76.333191,312.752838 63.470695,312.818787 
	C57.140858,312.851257 50.748001,311.223083 44.504478,309.811859 
	C42.986950,309.468842 41.946350,307.015778 40.458366,305.267578 
	C40.324966,304.432190 40.419655,303.862152 41.080883,303.117676 
	C42.093616,302.910248 42.539810,302.877197 42.986004,302.844177 
	C49.412334,304.252228 55.833874,306.800964 62.266014,306.828033 
	C75.182373,306.882324 88.104523,305.560181 101.472855,304.803772 
	C101.996986,306.572937 102.072533,308.344482 102.098953,310.554932 
z"/>
<path fill="#24826D" opacity="1.000000" stroke="none" 
	d="
M480.854492,180.908005 
	C482.674713,180.154510 484.184937,179.568970 485.464355,179.072922 
	C483.474823,183.770416 481.537659,188.344208 479.397156,193.398178 
	C473.959351,193.398178 467.881958,193.398178 461.655243,193.398178 
	C460.051910,189.382034 458.414276,185.280029 456.776642,181.178009 
	C457.016876,180.873581 457.257111,180.569153 457.497345,180.264709 
	C460.480896,182.784500 463.464447,185.304291 466.936646,188.236755 
	C466.936646,184.221420 466.936646,180.351883 466.936646,176.482346 
	C467.390656,176.299240 467.844666,176.116135 468.298645,175.933029 
	C470.534332,179.369492 472.770020,182.805939 475.025818,186.273361 
	C476.784637,184.616928 478.664551,182.846451 480.854492,180.908005 
z"/>
<path fill="#A3734C" opacity="1.000000" stroke="none" 
	d="
M50.042412,444.994934 
	C51.732018,449.443573 53.421619,453.892181 55.179920,458.752747 
	C49.167870,459.466156 43.087124,459.767578 36.604282,460.088928 
	C36.604282,454.896149 36.604282,450.326599 37.222157,445.426636 
	C41.907490,445.062469 45.974949,445.028717 50.042412,444.994934 
z"/>
<path fill="#E5E1E6" opacity="1.000000" stroke="none" 
	d="
M20.072681,273.218811 
	C25.462135,273.424316 30.803368,274.086029 36.553940,274.806091 
	C36.505825,277.404938 36.048367,279.945404 35.324005,282.740814 
	C30.317591,282.316498 25.578085,281.637268 20.395630,280.938446 
	C19.976608,278.504272 20.000534,276.089661 20.072681,273.218811 
z"/>
<path fill="#DAD6D9" opacity="1.000000" stroke="none" 
	d="
M114.943665,193.079056 
	C118.354431,187.956177 123.099777,185.959091 129.168823,186.890381 
	C129.610580,186.958160 130.165924,186.285782 130.721313,185.589447 
	C131.837463,187.099396 132.900711,188.977402 134.040543,191.176910 
	C127.787315,191.381119 121.875938,192.412811 116.936600,197.552856 
	C115.920471,196.054947 115.432068,194.567001 114.943665,193.079056 
z"/>
<path fill="#F3CA8E" opacity="1.000000" stroke="none" 
	d="
M306.319305,126.804001 
	C304.448181,126.062714 302.987000,125.336845 301.274933,124.370605 
	C310.509979,123.214180 319.995880,122.298134 329.481812,121.382095 
	C329.527527,121.768890 329.573273,122.155685 329.619019,122.542488 
	C321.989075,123.968124 314.359161,125.393768 306.319305,126.804001 
z"/>
<path fill="#DFD9DC" opacity="1.000000" stroke="none" 
	d="
M57.790237,200.254944 
	C62.096294,200.000839 66.115738,199.983078 70.135193,199.968140 
	C72.114418,199.960785 74.093651,199.958664 76.558304,200.177673 
	C77.043732,200.401154 76.976143,200.845612 76.976143,200.845612 
	C70.889412,205.094177 64.267601,204.678238 57.224270,202.851776 
	C57.126904,201.914093 57.315269,201.203262 57.790237,200.254944 
z"/>
<path fill="#523418" opacity="1.000000" stroke="none" 
	d="
M50.052315,444.637451 
	C45.974949,445.028717 41.907490,445.062469 37.372135,445.053711 
	C36.865612,444.265228 36.826984,443.519257 36.841522,442.402344 
	C40.885616,442.040283 44.876537,442.049103 49.312691,442.108154 
	C49.859352,442.865570 49.960789,443.572754 50.052315,444.637451 
z"/>
<path fill="#463F46" opacity="1.000000" stroke="none" 
	d="
M39.752853,279.318420 
	C40.087307,282.462463 40.300125,285.980499 40.203419,289.774597 
	C39.806335,286.597900 39.718773,283.145172 39.752853,279.318420 
z"/>
<path fill="#463F46" opacity="1.000000" stroke="none" 
	d="
M42.925949,302.517822 
	C42.539810,302.877197 42.093616,302.910248 41.311142,302.932922 
	C40.703697,302.455109 40.432537,301.987640 40.101105,301.253937 
	C40.982525,301.388977 41.924213,301.790222 42.925949,302.517822 
z"/>
<path fill="#4C2F15" opacity="1.000000" stroke="none" 
	d="
M109.048523,444.700073 
	C104.713142,445.022369 100.298706,445.150909 95.891960,445.020172 
	C94.623100,444.982513 93.376396,444.197876 92.006378,443.343506 
	C91.893227,442.931305 91.965179,442.499359 91.988373,442.281677 
	C96.675812,441.879822 101.340057,441.695618 106.437164,441.513000 
	C107.570816,442.478943 108.271606,443.443329 109.048523,444.700073 
z"/>
<path fill="#FEFDFA" opacity="1.000000" stroke="none" 
	d="
M77.350639,200.785400 
	C76.976143,200.845612 77.043732,200.401154 77.023888,200.176636 
	C77.932785,198.940857 78.674530,197.428726 79.821007,197.000702 
	C86.582306,194.476517 89.104485,191.388550 89.011833,184.135208 
	C88.930161,177.741211 88.362022,171.353455 88.059914,164.530182 
	C89.064362,164.312836 90.590027,164.230698 90.880920,164.790344 
	C93.367203,169.573639 97.889244,169.866028 102.362473,170.259384 
	C105.761711,170.558304 107.483849,172.253067 108.503372,175.597382 
	C110.240967,181.297134 112.581154,186.813171 114.805923,192.742737 
	C115.432068,194.567001 115.920471,196.054947 116.666000,197.759521 
	C117.572342,201.274017 115.277107,200.825577 113.322670,200.802063 
	C102.593605,200.673080 91.864670,200.531265 81.135368,200.426971 
	C79.999702,200.415909 78.861931,200.620590 77.350639,200.785400 
z"/>
<path fill="#FDFCF4" opacity="1.000000" stroke="none" 
	d="
M78.015282,374.535645 
	C71.967941,381.628479 66.092033,388.400635 60.034248,395.437927 
	C60.311115,390.207886 60.501415,384.674316 61.280022,379.224854 
	C63.432423,364.160187 65.817703,349.128632 68.152252,334.090424 
	C68.370796,332.682709 68.882233,331.320496 70.481438,329.774628 
	C71.468567,334.198975 72.571373,338.601318 73.419006,343.052246 
	C75.244644,352.638580 76.958755,362.246429 78.648232,371.857819 
	C78.777596,372.593750 78.353531,373.426941 78.015282,374.535645 
z"/>
</svg>