<svg xmlns="http://www.w3.org/2000/svg" viewBox="0 0 1924.5 1455.76"><circle cx="993.26" cy="727.88" r="727.88" style="fill:#addbc2"/><path d="M1519,1680.77c244.81,0,443.25,7.42,443.25,16.56s-198.44,16.55-443.25,16.55-443.29-7.42-443.29-16.55S1274.19,1680.77,1519,1680.77Z" transform="translate(-37.75 -272.12)" style="fill:#284e46"/><path d="M1389.37,1383.81s230.33-169.47,255.8-160.63,132.34,30.35,123.46-29-90.38-175.69-109.28-193.36-61.27-36.67-89.1-40.45-43.78-83.39-107-102.37c-65.63-19.7-122.87-8.3-140,11.37s-12.73,50.55-30.54,61.91-95.4,12.67-106.87,53.08,6.34,51.81,11.47,111.25,2.54,152.91-3.86,179.47-33.08,176.9-49.63,193.32-21.66,85.41-3.57,128.3c27.91,66.15,63.4,36.93,63.4,36.93Z" transform="translate(-37.75 -272.12)" style="fill:#abbbcd"/><path d="M1389.37,1383.81s230.33-169.47,255.8-160.63,132.34,30.35,123.46-29-90.38-175.69-109.28-193.36-61.27-36.67-89.1-40.45-43.78-83.39-107-102.37c-65.63-19.7-122.87-8.3-140,11.37s-12.73,50.55-30.54,61.91-95.4,12.67-106.87,53.08,6.34,51.81,11.47,111.25,2.54,152.91-3.86,179.47-33.08,176.9-49.63,193.32-21.66,85.41-3.57,128.3c27.91,66.15,63.4,36.93,63.4,36.93Z" transform="translate(-37.75 -272.12)" style="fill:#63c2a0"/><path d="M1291.59,938.27c37.86,6.55,82.26,38.8,82.72,39.15a2.64,2.64,0,0,0,1.58.53,2.56,2.56,0,0,0,2-.93,2.31,2.31,0,0,0-.46-3.38c-1.86-1.41-42.08-30.63-79.71-39.11a16.36,16.36,0,0,1-2.92,2.11A23.73,23.73,0,0,1,1291.59,938.27Z" transform="translate(-37.75 -272.12)" style="fill:#5f585a"/><path d="M1417.9,988.29c-.44-.38-46.72-37.74-68.89-59.35-22.66-22.07-29.11-47-22.26-58.36a2.35,2.35,0,0,1,3.36-.74,2.66,2.66,0,0,1,.76,3.56c-4.74,7.82-1.24,29.71,21.42,51.75,22,21.47,68.14,58.68,68.58,59.06a2.7,2.7,0,0,1,.48,3.61,2.4,2.4,0,0,1-1.94,1A2.57,2.57,0,0,1,1417.9,988.29Z" transform="translate(-37.75 -272.12)" style="fill:#5f585a"/><path d="M1495.32,967.21c6.48-24.46,2.29-91.82-36.66-102.09s-114.16-11.51-100.26,18.4,73.22,83.16,73.22,83.16S1488.89,991.67,1495.32,967.21Z" transform="translate(-37.75 -272.12)" style="fill:#12110f"/><path d="M1200,1131.43c16.27,10.19,17.32.92,26.85,9.77,10.77,10,53.89,21.26,53.89,21.26-18.92-17.81-71.43-73.31-86.83-97.68a294.78,294.78,0,0,1,4,29.37C1198.86,1105.59,1199.55,1118.25,1200,1131.43Z" transform="translate(-37.75 -272.12)" style="fill:#12110f"/><path d="M1189.06,1629.12c-15.62-2.61-37.76-21.88-38.55-47.07s26.87-94,26.87-94S1204.74,1631.78,1189.06,1629.12Z" transform="translate(-37.75 -272.12)" style="fill:#12110f"/><path d="M1417.68,803.28a33,33,0,0,1,20.76-16.54c7.3-1.88,14.56-.62,21.6,1.61a34.29,34.29,0,0,0-13.28,2.91c-8.23,3.62-14.65,10.19-19.44,17.71-2.51,4,3.73,7.68,6.29,3.7,5.89-9.25,16.66-17.75,27.79-17.16-7.74,9.38-39.58,22.22-37.21,85.4-6.11,27.18,11,50.21,19.93,49.63,13.1-.9,154.9,58.26,154.9,58.26s34.84-14.13,52.92-60.81,3.65-69.35-5.11-73.73,6.29-12-45-48.6c-32.51-23.21-70.6-33.36-70.6-33.36s11.44-28.3,7.48-44.8-34.31-44.4-53.13-25.31-15.92,14.66-35.1,19.81-24.19,30.09-9.72,46.23a122.18,122.18,0,0,0,11,10.73,37.91,37.91,0,0,0-16,.9,40.08,40.08,0,0,0-24.28,19.72C1409.24,803.78,1415.48,807.49,1417.68,803.28Z" transform="translate(-37.75 -272.12)" style="fill:#422c2d"/><path d="M1454.4,988.8s-21-16.52-32.56-32.19c11.46-11.73,28.73-43.79,28.73-43.79Z" transform="translate(-37.75 -272.12)" style="fill:#ef8673"/><path d="M1443.55,976.62c5.92,7.13,10.85,12.18,10.85,12.18l-2.93-76c-3.63,15.13-5.35,31.31-6.62,47.21C1444.39,965.58,1443.91,971.08,1443.55,976.62Z" transform="translate(-37.75 -272.12)" style="fill:#12110f"/><path d="M1475.07,884.5c10.46,8.69,10.46,8.69,29.49,15.14,20.7,7.08,35.44,7,50.92-2.28s20.66-9.87,31-6.28c11.19,3.9,16.7,16.86,30.71,14.3,18.57-3.36,42.41-5.65-10.87,77.19s-118.91,42-145.53,19.41-3-80.15-18.43-87.72-11.15-54.1,4.32-64.28,23.35,16.9,23.35,16.9S1473.07,876.25,1475.07,884.5Z" transform="translate(-37.75 -272.12)" style="fill:#ef8673"/><path d="M1497.81,915.85c0,4.27,2.23,7.35,4.87,7.59a68,68,0,0,0,35-6.56c2.54-1.27,4.11-5.29,3.4-9.33-.66-3.87-3.45-6.47-6-5.29a60.78,60.78,0,0,1-32.38,6C1500,908.11,1497.81,912,1497.81,915.85Z" transform="translate(-37.75 -272.12)" style="fill:#422c2d"/><path d="M1596.14,951q5.85,7.1,11.77,14.21c1.46,1.81,4.38,2.33,6.83,1.38s3.17-3.51,1.77-5.17c-3.91-4.78-7.82-9.51-11.72-14.25a6.14,6.14,0,0,0-6.83-1.34C1595.62,946.78,1594.78,949.34,1596.14,951Z" transform="translate(-37.75 -272.12)" style="fill:#422c2d"/><path d="M1509.15,941.16c3,6.3,7.85,12.78,13.86,15,2.08.74,6.66-1.85,7.27-4.07s-2.94-5.23-4.78-6.25a27.92,27.92,0,0,1-9.56-9.12,3.76,3.76,0,0,0-5.4-1.57C1508.66,936.26,1508.17,939.13,1509.15,941.16Z" transform="translate(-37.75 -272.12)" style="fill:#12110f"/><path d="M1592.69,977c-5.41,1.35-12,1.5-16.73-1.58-1.65-1-2.76-5.7-1.86-7.36s4.76-.81,6.45,0a22.33,22.33,0,0,0,10.81,1.73c1.86-.46,3.62,1,4.05,2.93A3.75,3.75,0,0,1,1592.69,977Z" transform="translate(-37.75 -272.12)" style="fill:#12110f"/><path d="M1509.33,999.43a5.62,5.62,0,0,0,2.89,3.24,34.17,34.17,0,0,1,5.12,2.43,45.46,45.46,0,0,1,5.73,4.42c2.28,2.14,5.27.59,6.64-2.5a10.49,10.49,0,0,0,.51-5.45,7.71,7.71,0,0,0-2.23-4.2,41.07,41.07,0,0,0-13.19-8.32c-2.63-1-5.12,1.25-6,4.93A10.48,10.48,0,0,0,1509.33,999.43Z" transform="translate(-37.75 -272.12)" style="fill:#eb6a55"/><path d="M1540.76,1661.33c-33.18,16.8-88.85,21.79-100.93,16.13-8.38-3.92-18-3.6-33.91.85-11.09,3.06-137.23,12.4-165.2-5.84s-98.32-80.8-74.55-148,123.11-388.53,178.47-471.13,115.24-72.89,152.35-42.6,35.81,127.13,46.85,158.72,56.67,112.25,51.19,142.59-49.88,83.22-49.88,83.22S1573.94,1644.56,1540.76,1661.33Z" transform="translate(-37.75 -272.12)" style="fill:#37927d"/><path d="M1503.77,1152.89c4.14,27.07,45.93,206.37,58.76,248.63,9.81,32.26,27.11,23.11,66.11,5,45.89-21.38,98.33-63.59,97.07-83.61s-14.36-115.19-39.19-189.17-54.67-142.22-117.29-133.3-69.88,51.68-71.18,55.5A561.1,561.1,0,0,0,1503.77,1152.89Z" transform="translate(-37.75 -272.12)" style="fill:#357769"/><path d="M1313.53,1292a355.26,355.26,0,0,0,53.84,97.14c1.09,1.37,4.25,6.08,7.46,9.21,7.1,16.18,11.35,24.33,19.71,39.93,8.73,16.27,18,32.4,28.3,47.78,4.07,6.12,9.81,12.82,18,12.87,6.78,0,13.47-4.55,13.56-11.55.09-4.67-7.37-4.67-7.46,0,0,3-3.8,4.45-6.51,4.27-3.75-.26-6.83-3.43-9-6.16-5.6-7.19-10.12-15.47-14.78-23.28a657.6,657.6,0,0,1-76.4-188.59c-1.09-4.58-8.28-2.64-7.24,1.9q7.2,30.54,17.14,60.29,6,17.78,13,35.26a348.92,348.92,0,0,1-42.45-81C1319.13,1285.69,1312,1287.58,1313.53,1292Z" transform="translate(-37.75 -272.12)" style="fill:#357769"/><path d="M1690,1355.36c17.14-13.7,28.25-31.27,24-37.53s-17.15-2-17.15-2C1688.88,1321.33,1672.76,1369.06,1690,1355.36Z" transform="translate(-37.75 -272.12)" style="fill:#12110f"/><path d="M1595.49,1407.23s-10.71,10.94-10.85,0,6.89-27.7,6.89-27.7Z" transform="translate(-37.75 -272.12)" style="fill:#12110f"/><path d="M1629.81,1629.15c-6.53.44-20.74-9.72-19.34-17.87a52.65,52.65,0,0,1,3.73-13l3.31-36.24-22-182.8s30.63-29.18,60.38-47.54c23.51-14.5,37.3-17.34,37.3-17.34l-1.78,262.36S1636.39,1628.75,1629.81,1629.15Z" transform="translate(-37.75 -272.12)" style="fill:#ee8b7b"/><path d="M1617.27,1614c-2.63-1.74-2.54-18.85-2.54-18.85s0-9.06-5,.37-26.43,95.06-25,97.71,86.55-.55,86.55-.55S1828,1697,1832,1690.21s2.54-35.82-2.55-46.38-40.18-24.16-64.82-33.95-59.34-55.08-90.15-44.14-48.12,44.14-48.12,44.14S1622.35,1617.43,1617.27,1614Z" transform="translate(-37.75 -272.12)" style="fill:#40327a"/><path d="M1584.71,1693.29c1.47,2.49,87.76-.51,87.76-.51s29.9.77,64.12,1.12c-17.91-23.75-35.68-47.53-53.95-71q-14.52-18.68-29.46-37.13a108,108,0,0,0-26.26,29.32s-4,7.08-9.2,3.86c-2.66-1.63-2.57-17.68-2.57-17.68s0-8.5-5.11.34S1583.24,1690.8,1584.71,1693.29Z" transform="translate(-37.75 -272.12)" style="fill:#312766"/><path d="M1671.27,1692.77h0v0Zm0,0h.45l1.31,0,5,.1,17.8.31c14.76.23,34.47.49,54.31.58s39.8,0,55-.42c7.63-.22,14.07-.52,18.73-.94,2.33-.21,4.21-.45,5.57-.72a10.12,10.12,0,0,0,1.61-.42,1.7,1.7,0,0,0,.7-.39,9.58,9.58,0,0,0,1.36-3.31,31.33,31.33,0,0,0,.74-5,67.58,67.58,0,0,0-.37-12.42c-19.4.26-110.14,1.34-131.68,0-11.32-.71-25.29-1.32-37.89-1.86l-2.47-.11c-13.2-.56-24.57-1.07-29.2-1.58h0c-2.67-.3-5-.74-7.58-1.25-6-1.16-13.7-2.64-31.36-3.35-2.52,8.08-4.77,15.7-6.32,21.43-.78,2.89-1.38,5.29-1.75,7-.18.87-.3,1.57-.36,2.08q0,.38,0,.6a.63.63,0,0,0,0,.16s0,0,0,0l0,0a.93.93,0,0,0,.21.08,7.34,7.34,0,0,0,.8.15c.69.09,1.67.18,2.9.24,2.46.13,5.9.21,10,.24,8.18,0,19-.07,29.69-.26s21.41-.43,29.41-.64l9.66-.25,2.7-.08.72,0h.24v0Z" transform="translate(-37.75 -272.12)" style="fill:#f8f9fb;stroke:#40327a;stroke-width:0.4852521844775593px"/><path d="M1584.71,1693.45c1.47,2.1,87.76-.44,87.76-.44s29.9.66,64.12.94q-10.6-11.85-21.11-23.67c-5-.07-9.15-.22-12-.4-24.48-1.52-61.14-2.54-70.51-3.56-8.94-1-13.87-3.58-39.68-4.6C1588.13,1678,1584,1692.5,1584.71,1693.45Z" transform="translate(-37.75 -272.12)" style="fill:#f5f0f7"/><path d="M1464.63,1459.39c-16.92,26-24.46,21-19.66,1.57,9.5-38.54,29.82-70.58,29.82-70.58S1481.5,1433.43,1464.63,1459.39Z" transform="translate(-37.75 -272.12)" style="fill:#12110f"/><path d="M1494.29,1627.08c-2.81-10.26-.8-27.84-.8-27.84l-.14-33.24s-32.1-92.17-35.44-106.82-11.66-47.39,20-86.17,53.91-47.75,53.91-47.75,63.67,278.75,63.67,281.31C1595.49,1606.57,1497.14,1637.29,1494.29,1627.08Z" transform="translate(-37.75 -272.12)" style="fill:#ee8b7b"/><path d="M1629.81,1629.15c-6.53.44-20.74-9.72-19.34-17.87a52.65,52.65,0,0,1,3.73-13l3.31-36.24-22-182.8s30.63-29.18,60.38-47.54c23.51-14.5,37.3-17.34,37.3-17.34l-1.78,262.36S1636.39,1628.75,1629.81,1629.15Z" transform="translate(-37.75 -272.12)" style="fill:#ee8b7b"/><path d="M1611.1,1611.62c-1.4,8,12.84,18,19.38,17.53s61.67-51.38,61.67-51.38l1-144c-2.76.52-5.57,1-8.29,1.65a229.34,229.34,0,0,0-24.9,6.92,269.63,269.63,0,0,0-47.39,21.4c-2.09,1.18-4.17,2.4-6.25,3.62l11.81,96-3.31,35.55A50.66,50.66,0,0,0,1611.1,1611.62Z" transform="translate(-37.75 -272.12)" style="fill:#f8f9fb"/><path d="M1496,1599.17s-2,17.62.79,27.91,98.75-20.57,98.75-20.57c0-1.33-16.9-78-33.06-151a111.76,111.76,0,0,0-18.25,4.36,130,130,0,0,0-26.81,12.71c-15.25,9.28-28.67,21.22-41.27,34.07,9.38,28.69,19.72,59.18,19.72,59.18Z" transform="translate(-37.75 -272.12)" style="fill:#f8f9fb"/><path d="M1662.61,1636.82c-14-9.78-19.44-22.51-33.81-44.66s-36-32.32-63.57-26.51-58.82,41-62.86,43.2-4.41-2.91-4.41-10.87-3.29-5.42-3.29-5.42c-13.75,11-15.08,48.62-17,59.63s-3.25,40.12,4,40.78,190.1,2.6,196,0,4.59-22,4.59-22C1682.1,1665.14,1676.58,1646.64,1662.61,1636.82Z" transform="translate(-37.75 -272.12)" style="fill:#40327a"/><path d="M1677.6,1693.18c5.92-2.19,4.59-18.5,4.59-18.5a24,24,0,0,0-1.38-6.15s-161.13,1.81-176.21,0c-14.64-1.74-15.8-5.22-27.45-6.81-1.65,10.62-2.14,31,4.45,31.46C1488.8,1693.73,1671.69,1695.36,1677.6,1693.18Z" transform="translate(-37.75 -272.12)" style="fill:#f8f9fb"/><path d="M1549.71,1368.68s32-48.08,22.18-53.23-30.67,10.14-30.67,10.14Z" transform="translate(-37.75 -272.12)" style="fill:#12110f"/><path d="M1396.6,1182.9l296.57,14.43s-126.82,31-129.25,44.06,5,62.16,5,62.16-12.32-10.19-16.83-22.69-6.83-32.92-10.11-40.29-36.73.26-47.28,3.69-102.57,49.36-123.31,29-79.8-99.93-79.8-99.93Z" transform="translate(-37.75 -272.12)" style="fill:#357769"/><path d="M1759.14,1078.56c12.14,14.79,21.7,50.93,20.8,73.88s-5.2,55-10.4,53.37-12.13,3.29-11.29-16.38,4.36-21.36-12.13-32.06-25.06-29.94-25.06-29.94c-2-19.67-27.89-73.51-27.89-73.51S1747,1063.78,1759.14,1078.56Z" transform="translate(-37.75 -272.12)" style="fill:#ee8b7b"/><path d="M1708.58,1188c-11,2-76.43,22.77-114.23,29.6s-127.61,47.23-169.79,42.13-114.45-70-135.17-89.49-24.78-40.22-24.78-40.22-10.88-64.07-12.16-64.43-14.16-45.14,12.16-50c8.84-1.6,34-.78,55.15-3.65s124.93-2.41,184.37,10.25,84.44,34.61,84.44,34.61,91.18-8,102.61-8,21.82,1.87,27,6.56,24,37.75,28.46,74.28-11.47,47.22-11.47,47.22S1719.6,1186,1708.58,1188Z" transform="translate(-37.75 -272.12)" style="fill:#63c2a0"/><path d="M1327.73,1010.06c19.37-1.66,38.83-2.49,58.25-2.34,65,.58,130.7,12.61,189.66,42.92-14.39,2.19-28.64,4.94-42.85,8.36a437.64,437.64,0,0,0-78.52,26.79c-.59-.44-34.35-1.23-50.24,1.51-15.74,2.74-31.31,7.29-46.88,11.1-4.66,1.13-2.67,8.9,2,7.77,15.16-3.71,30.37-8.06,45.71-10.85,2.4-.49,4.8-.78,7.24-1.12a3.59,3.59,0,0,0,1.13,2.44c3.49,3.47,7,6.94,10.5,10.41a3.69,3.69,0,0,0,4.53.64,398.25,398.25,0,0,1,59.1-26.84c36.11-13,73.72-21,111.55-25.23s63.45-6.4,101.51-4.69c4.85.24,4.8-7.82,0-8-21.86-1-43.76-1.22-65.66-.44-19.51.74-26.39,3.76-45.8,6.31a355.75,355.75,0,0,0-54-24.44c-66.43-23.71-137.8-28.26-207.18-22.35C1323,1002.38,1322.94,1010.45,1327.73,1010.06Z" transform="translate(-37.75 -272.12)" style="fill:#5f585a"/><path d="M1281.85,1158.33c25.44,26.38,51.19,53,81.22,73.41,13.51,9.15,28,17.19,43.18,22.68,16.39,5.92,33.14,7.41,50.11,3.71s33.46-10.6,49.94-16.28c17.24-6,34.53-11.69,52-16.75,33.72-9.68,55.56-17.23,89.73-24.74,16.8-3.66,33.5-7.71,50-12.81,7.52-2.31,15.17-4.57,22.42-7.85,6.4-2.84,12.25-6.88,15.67-13.52,2.3-4.48-4.14-8.47-6.44-4-3.64,7.12-11.12,10.15-18,12.56-8.87,3.17-17.83,6-26.88,8.47-18.1,5.1-36.42,9.1-54.79,13-33.23,6.93-53.85,15.07-86.45,25.08-16.61,5.15-33.09,10.78-49.53,16.56-15.93,5.58-32.14,12.47-48.94,14.2s-33-2.84-48.26-10a224,224,0,0,1-40.08-24.4c-25.3-18.92-47.54-42-69.6-64.89C1283.7,1149.19,1278.43,1154.77,1281.85,1158.33Z" transform="translate(-37.75 -272.12)" style="fill:#5f585a"/><path d="M1264.87,1051.81c-12.41-10.14-3.09-32.15,9.71-30.34s27.87,10.75,27.87,10.75S1277.29,1062,1264.87,1051.81Z" transform="translate(-37.75 -272.12)" style="fill:#12110f"/><path d="M1308,1032.22c-7.6,2.33-54.52,17.3-56,25.11s-3.81,48.76-3.81,48.76c0,17.3,6.06,22.77,9.86,26.73s5.27,14.15,9.85,17.88,8.29-5.3,8.29-5.3,3.07,9.39,9.85,3.15,27.87-34.74,36.38-37.75,23.46-7,23.46-7C1332.21,1041.65,1308,1032.22,1308,1032.22Z" transform="translate(-37.75 -272.12)" style="fill:#ee8b7b"/><path d="M1291.66,1018.35c.37,2.31,2,3.34,3.45,2.92a59.51,59.51,0,0,1,15.41-2.3c1.56-.05,2.71-1.9,2.78-4.21s-1.32-4.25-2.78-4.25a67.75,67.75,0,0,0-16.9,2.61C1292.1,1013.58,1291.35,1016.25,1291.66,1018.35Z" transform="translate(-37.75 -272.12)" style="fill:#5f585a"/><path d="M1264.25,1062.14c3.27-1.91,5.86-.82,8.83,1a13.22,13.22,0,0,0,9.2,1.79c3.06-.4,5.52-.14,7.94,2s3.18,4.81,4.75,7.38a11.86,11.86,0,0,0,6.53,5.16c2.67.87,5.56.87,8.15,1.86,5,2,7.8,7.25,7.46,12.54-.29,4.6,6.71,4.56,7,0a19.79,19.79,0,0,0-8.28-17.18c-2.8-2-5.9-2.69-9.21-3.34-1.48-.3-3.35-.52-4.58-1.48s-1.87-2.9-2.63-4.33c-3.65-7-10-10.55-17.65-9.68a7.79,7.79,0,0,1-5.55-1.13,18.26,18.26,0,0,0-4.88-2.38,13.63,13.63,0,0,0-10.61,1.6C1256.83,1058.28,1260.35,1064.49,1264.25,1062.14Z" transform="translate(-37.75 -272.12)" style="fill:#eb7075"/><path d="M1262.94,739c-11.85,19.85-27.54,37.55-46.32,50.13a24.6,24.6,0,0,0,.57-6.52c-.8-15.52-12.77-25.71-25.68-31.39a117.29,117.29,0,0,0,21.53-27,83.14,83.14,0,0,0,9.73-27.18c9.13-6.07,18.16-12.27,27-18.86,14-10.45,27.91-22,39.93-35.27C1289,675.74,1280.79,709,1262.94,739ZM1082.23,803a180.49,180.49,0,0,0,31.64-7.32,231,231,0,0,0,26-10.29c10.89,9,22.83,17.09,35.89,22a144.9,144.9,0,0,1-23.88,4C1127.83,813.32,1104.47,809.85,1082.23,803Zm-66.59,20.27c-20.84,7.72-44.48,11-64.53,4.65a39.46,39.46,0,0,1-12-6.13c6.17-1,12.16-3.59,18-6.34a170.66,170.66,0,0,0,17.69-9.62c.94-.62,1.86-1.23,2.78-1.79,2,4,4,8,6.07,12,2.25,4.47,9.44.39,7.19-4.08-2.1-4.2-4.22-8.36-6.31-12.56,4.59-3.19,9.13-6.62,13.54-10.14,1.51.84,3,1.64,4.56,2.44A128.56,128.56,0,0,0,1051,804.3,156.15,156.15,0,0,1,1015.64,823.31Zm-129-73.23c-6-8.63-9.73-19.11-11.37-30.09-3.47-22.69.79-47.06,7.38-70,.37-1.29.77-2.51,1.11-3.74a389.8,389.8,0,0,0,26,40.13c5.65,7.62,11.54,15,17.7,22.13-.84,2.86-1.64,5.75-2.4,8.65a321.71,321.71,0,0,0-14.39,49.09c-.3,1.36-.55,2.74-.8,4.12A66.55,66.55,0,0,1,886.61,750.08Zm-26-177c-4-12.07-7.6-24.49-8.26-37.63a87.64,87.64,0,0,1,5.83-34.89c8.55-22.86,25.12-43.07,44.41-57.18,14.23-10.38,30-17.62,46.13-22.81C930.3,446.3,918,476.85,911.6,507.16a291.75,291.75,0,0,0-6,69.25,343.11,343.11,0,0,0-22,46.86c-.37,1-.71,2-1.06,2.91A380.3,380.3,0,0,1,860.58,573.06ZM988.79,389.91a114.19,114.19,0,0,1,63.36-22.58c22.89-.92,44.86,4.7,65,13.45,20.63,8.88,39.55,21.34,57,35.36-1.28-.11-2.5-.2-3.79-.25a463.6,463.6,0,0,0-183.85-12.15c-5.59.82-11.16,1.83-16.78,3A148.82,148.82,0,0,1,988.79,389.91Zm267.7,266.66a115.18,115.18,0,0,0,13.17-10.76,111.42,111.42,0,0,0,19.38-24.9c.32,3.45.51,6.91.6,10.4A219.59,219.59,0,0,1,1264,657.05c-9.11,7.8-18.65,15.13-28.44,22.05A247.06,247.06,0,0,0,1256.49,656.57Zm-130.65,104c-2.37-2.5-4.67-5-6.94-7.67,17.63-1.44,35.89-2,52.87,1.15,1.24.2,2.46.46,3.61.75a186.53,186.53,0,0,1-23.57,15.6c-3.34,1.84-6.71,3.61-10,5.29A205,205,0,0,1,1125.84,760.62Zm-20.15-3.56c1.4-.52,2.79-1,4.21-1.58a235.52,235.52,0,0,0,17.78,19c1.82,1.78,3.71,3.52,5.62,5.21-19.37,8.67-39.65,14.45-59.85,16.17A195,195,0,0,0,1105.69,757.06Zm-89.32,25.7c7.07,4.13,14.3,8.09,21.69,11.77a119.57,119.57,0,0,1-30.77-10ZM979,788.51c2.93-.29,5.86-.58,8.77-.93-2.23,1.67-4.51,3.33-6.79,4.87C980.35,791.15,979.67,789.83,979,788.51Zm29-316.73c20-14.5,41.67-26.78,64.06-35.32A169.76,169.76,0,0,1,1101.8,428a157.85,157.85,0,0,0-37.25,22.13c-22.07,17.73-38.12,42.07-51.89,66.92-3.34,6-6.61,12-9.83,18.07A81.27,81.27,0,0,0,991,553.33a109.24,109.24,0,0,0-5.64,15.31,241.24,241.24,0,0,0-16.63,24.22,197.9,197.9,0,0,0-25.46,68.74c-3.1,8.1-6,16.21-8.76,24.42-2.23-6.48-4.28-13-6.21-19.61-8.25-28.25-13.74-58.13-14.79-88.69C937.38,536.18,970,499.36,1008,471.78Zm125.57-53.38c-34.29-3.81-72.68,11.63-104.23,30.18-43.41,25.58-81.61,62.6-110.33,105.88-1.93,2.93-3.83,5.93-5.72,8.87a284.54,284.54,0,0,1,5.15-51.54c6.47-33.31,20.43-67.54,42.31-94.69,3.07-.81,6.17-1.54,9.23-2.19,25.17-5.36,50.7-6.86,75.78-7a454.73,454.73,0,0,1,94.47,9.39C1138,417.61,1135.79,418,1133.56,418.4ZM1192,431.6a318.24,318.24,0,0,1,22.42,23.16,168.84,168.84,0,0,0-24.28-.79,65.67,65.67,0,0,0-20.7-22.64A74.79,74.79,0,0,0,1156,424c4-.13,8.07-.14,12,0C1176.11,426.37,1184.14,428.84,1192,431.6Zm67,34.87a145.38,145.38,0,0,0-31.94-9.84c-4.92-6-10-11.88-15.28-17.55a296.56,296.56,0,0,1,39.05,19.08C1253.77,460.8,1256.44,463.56,1259.07,466.47Zm25.76,145a8.67,8.67,0,0,0,.94-.5,93,93,0,0,1-5.93,10.59C1281.6,618.23,1283.23,614.87,1284.83,611.45ZM1220.46,665a73.69,73.69,0,0,0-23.09-33.78,107.49,107.49,0,0,0,4.21-14.57,93.89,93.89,0,0,0,41.15,6.7,104.69,104.69,0,0,0,31.25-6.93,202.49,202.49,0,0,1-22.41,34.14A115,115,0,0,1,1220.46,665Zm2.06,7.76a136,136,0,0,0,13.74-5c-4.1,4.18-8.41,8.24-12.73,12.06C1223.28,677.47,1223,675.09,1222.52,672.77Zm-107.71,72.31c-.8.1-1.52.16-2.27.27,1.23-2.26,2.35-4.49,3.44-6.78a150,150,0,0,0,22.75-3.85c-2.23,1-4.46,2.11-6.74,3.1C1126.32,740.35,1120.56,742.74,1114.81,745.08Zm-79.68,33.56a556.49,556.49,0,0,0,58.53-17.11,181.37,181.37,0,0,1-21.71,25.3c-3.22,3.16-6.57,6.11-10,9a298,298,0,0,1-33-15.73C1031,779.57,1033.09,779.14,1035.13,778.64Zm-68.46-15.38a105.53,105.53,0,0,0,16.91,16.42c-2.84.32-5.67.64-8.52.83C972.24,774.81,969.4,769.05,966.67,763.26Zm66.64-242.81a310.74,310.74,0,0,0-27.16,24.45c.92-1.67,1.81-3.41,2.73-5.09A86,86,0,0,1,1033.31,520.45Zm154.3-52.86c3.22,9.12,3.88,18.91,3,28.9A54.62,54.62,0,0,0,1162,520.84c-12.84-7.94-27.42-13.33-41.88-16.85a139.46,139.46,0,0,0-44.56-3.89,321.25,321.25,0,0,1,37.33-19.27c23.4-10.18,48.14-16.85,72.54-18.47C1186.22,464.05,1187,465.78,1187.61,467.59ZM1289,574.38a292.4,292.4,0,0,0-14.11-40.23,74.91,74.91,0,0,1,11.44,15.38,58.86,58.86,0,0,1,4.67,11.11A131.79,131.79,0,0,1,1289,574.38Zm-85.79,32.22c2.46-23.46-3.64-46.83-16.68-64,1.4-3.82,2.75-7.65,4-11.57a175.4,175.4,0,0,0,7-28.3c19.11-4.78,37.2,2.46,52.41,11.95,3.24,2,6.45,4.17,9.6,6.46a280,280,0,0,1,25.16,69.83c-1.62,5-3.45,9.84-5.56,14.67-23.72,11.59-50.71,12.55-73.2,3.66-1-.42-2-.82-2.92-1.27C1203.06,607.51,1203.11,607.08,1203.19,606.6ZM1170.88,579c1-2.13,2.13-4.32,3.13-6.52,3.17-6.74,6.16-13.54,8.87-20.42,9.61,14.6,14.18,33.16,12.74,52A69.73,69.73,0,0,1,1170.88,579ZM1191,626.46c-11.37-7.55-24.56-11.91-38.28-14.15,4.8-8,9.4-16.19,13.69-24.49a74.47,74.47,0,0,0,28,25.45A93.25,93.25,0,0,1,1191,626.46Zm-89.48,104.47c-3.4-4.66-6.65-9.43-9.84-14.24-2.69-4.1-5.36-8.25-7.92-12.42,13.89-15.68,27.3-31.94,39.89-48.85.09.7.19,1.41.32,2.16,3.14,24.27-2,49.77-12.62,73.24C1108,731,1104.76,731,1101.51,730.93Zm-32.62,30.44c-5.74,1.78-11.48,3.4-17.25,5C1057.34,764.53,1063.1,762.86,1068.89,761.37ZM941.46,697.71c.21,2.75.45,5.55.81,8.28.11.82.26,1.64.38,2.4-.93-2.4-1.82-4.79-2.76-7.19Zm39.35-103.16a155.78,155.78,0,0,0,.66,29.54,274,274,0,0,0-31,41.3c.14-.79.22-1.55.29-2.31C959.68,639.83,969.87,617,980.81,594.55Zm138,24.24a174.86,174.86,0,0,1,20.75.4c-3.91,6.12-7.93,12.16-12.12,18.1A84.14,84.14,0,0,0,1118.85,618.79ZM1058.25,721c-33.48-15-58.36-45.52-66.69-84.45-.73-3.4-1.33-6.88-1.82-10.37,14.68-15.6,31.94-29.7,51.68-34.3s39.11,1.52,53.81,13.09a66.9,66.9,0,0,1,7.47,6.77s0,0-.06,0c-8.82,1.19-18,3.5-25.82,9.06-17.71,12.68-21.34,36.3-16.23,54.8,2.74,9.91,7.51,18.66,12.58,27.16.22.4.48.76.74,1.17C1068.73,709.73,1063.53,715.41,1058.25,721Zm25.3,8a118.26,118.26,0,0,1-17.83-4.93c1.34-1.43,2.66-2.87,4-4.26,2.77-3,5.55-6.08,8.32-9.1,3.7,6,7.49,12,11.47,17.79.35.55.77,1.07,1.12,1.62C1088.26,729.77,1085.9,729.46,1083.55,729Zm-128.69-3.85a125,125,0,0,1-5.83-42.2,275.12,275.12,0,0,1,32.19-47.24c.58-.61,1.13-1.28,1.66-1.9,4.11,23.15,13.55,44.69,27.68,61.82a119.52,119.52,0,0,0,41.35,32c-7.81,8.14-15.66,16.21-23.68,24.11-5.89,5.86-11.93,11.63-18.05,17.2A342.7,342.7,0,0,1,954.86,725.12Zm147.76,21.42a321.12,321.12,0,0,0-41.71,8.63,333.89,333.89,0,0,0-39.8,14.06c13.16-12.27,25.87-25.23,38.25-38.4a130.83,130.83,0,0,0,12.46,4.14,123.11,123.11,0,0,0,25,4C1098.76,741.48,1100.65,744.05,1102.62,746.54Zm-22.93-49.13c-.87-1.49-1.8-2.94-2.67-4.43-4.45-8-8.51-16.51-10.14-26-1.56-9-.72-19.3,3.84-28.07a34.05,34.05,0,0,1,19.87-16.27,75.86,75.86,0,0,1,18.44-3.37,79.87,79.87,0,0,1,12.54,26.31c-10.94,15-22.56,29.58-34.56,43.52C1084.57,691.91,1082.1,694.68,1079.69,697.41Zm97.83-152.48q-4.93,12.9-10.83,25.35a59.31,59.31,0,0,1-2.82-32.86,40.74,40.74,0,0,1,1.05-4.26A79.75,79.75,0,0,1,1177.52,544.93Zm3.33-9A88.29,88.29,0,0,0,1168.29,525a45,45,0,0,1,21-19.48A193.79,193.79,0,0,1,1180.85,536Zm-122-25.06c19.35-4.48,39.08-3.5,57.4.9,14.54,3.43,29.41,8.75,42.19,16.83-.35,1.13-.73,2.29-1,3.43-4.6,16.46-2.07,33.84,4.63,48q-8,15.91-17.4,31.18c-3.51-.33-7-.56-10.58-.73a204.54,204.54,0,0,0-20.85.3c-1.22-1.48-2.45-3-3.75-4.36-13.86-14.72-33.07-24.42-54-24.3-23.84.06-45.92,14.1-64.07,31.73-.91.84-1.77,1.81-2.64,2.66a134.38,134.38,0,0,1,3.76-44.66,265.77,265.77,0,0,1,24.65-27A330.78,330.78,0,0,1,1058.8,510.89Zm-95.14,234a351.2,351.2,0,0,0,39.82,30c-1,.82-1.87,1.66-2.87,2.48l-4.81.72A99.21,99.21,0,0,1,963.66,744.84Zm196.7-72.94c-2.95,2.56-1.17,7,2,7.13a177.52,177.52,0,0,0,52.33-4.16,58.17,58.17,0,0,1,1.25,8.75c0,.85.08,1.7.08,2.53a.36.36,0,0,0-.16.18c-28.28,22.83-62.14,39.84-96,43.81,8.47-20,13.19-41.21,12.78-62.2a108.22,108.22,0,0,0-2.5-21.34c6.19-8.67,12.16-17.53,17.81-26.53,14.26,2,28.33,6.46,39.94,14.59A103,103,0,0,1,1160.36,671.9Zm35.8-30.32a66.67,66.67,0,0,1,16.42,25.52,160,160,0,0,1-40.2,3.95,112.33,112.33,0,0,0,21.56-31.54C1194.71,640.19,1195.47,640.86,1196.16,641.58Zm95.12-99.87c-6.65-10.65-15.67-19.39-25.61-26.73a342.35,342.35,0,0,0-30.27-47.83c-.07-.07-.1-.14-.14-.16a133.11,133.11,0,0,1,36.26,15.67A122.29,122.29,0,0,1,1291.28,541.71Zm-69-77.57c1,1.21,2,2.44,3,3.69a347.5,347.5,0,0,1,25.53,37.31c-15.49-9-33.53-15-52.35-11,0-1.22.14-2.47.18-3.68a72.09,72.09,0,0,0-4.69-28.47,161.64,161.64,0,0,1,22.9,1.27C1218.65,463.55,1220.47,463.82,1222.27,464.14Zm-89.19-37.4a74.8,74.8,0,0,1,10.37,2c14.93,4,28.66,12.87,37.52,25.8-3.8.3-7.55.74-11.34,1.32-38.43,5.72-76.13,22.75-110.08,45.38-.94.61-1.82,1.24-2.69,1.81-1.78.47-3.61.92-5.37,1.45a109.18,109.18,0,0,0-31.83,15.29c11.51-20.58,24.37-40.74,41.56-56.7A146.16,146.16,0,0,1,1119,430.19C1123.66,428.81,1128.36,427.65,1133.08,426.74ZM922.49,775.89c.4-18.23,4.3-36.91,9.3-55.15.62-1.71,1.27-3.47,1.93-5.16,1.7,1.85,3.4,3.7,5.13,5.56,8.3,20.4,17.6,40.27,27.25,60C951.11,781.67,936.21,780.47,922.49,775.89Zm388.14-251.38a104,104,0,0,1,6.38,45.14c-3.72,8.37-9.94,15.87-16.93,22a71.71,71.71,0,0,0-1.19-32.93,128.86,128.86,0,0,0-11.54-64.28,118.19,118.19,0,0,1,13.85,14.44c2.28,2.87,4.56,5.89,6.74,9.18C1308.88,520.19,1309.82,522.31,1310.63,524.51ZM906.31,590.85a379.19,379.19,0,0,0,14.26,78c2.91,10.14,6.18,20.1,9.71,29.92-1.48-1.73-2.95-3.51-4.42-5.29a370.5,370.5,0,0,1-38.59-58.08A324.56,324.56,0,0,1,906.31,590.85Zm24.54,222.26a39.59,39.59,0,0,1-3-5.25,64.29,64.29,0,0,1-5.23-23.11,125.23,125.23,0,0,0,32.41,4.8c5,.05,10-.1,15-.38,1.34,2.69,2.65,5.31,4,8-2.43,1.55-4.85,3.06-7.34,4.49a147.58,147.58,0,0,1-17.44,8.8c-5.72,2.4-12.11,4.54-17.83,2.94C931.24,813.28,931.08,813.17,930.85,813.11Zm273.54-16.78c-3.76,2-7.6,3.79-11.45,5.36-8.86,1.18-17.28-3.25-24.45-7.25a156.3,156.3,0,0,1-20-13.27,208,208,0,0,0,20.41-12.09,188.5,188.5,0,0,0,15.55-11.61,50.08,50.08,0,0,1,11.84,6.14c6.4,4.55,12.3,11.35,13,20.1A15.24,15.24,0,0,1,1204.39,796.33Zm-21-48.15c-1.18-.36-2.36-.72-3.52-1-13.35-3.25-27.64-3.92-41.9-3.54a598.09,598.09,0,0,0,76-41C1209.43,720.21,1197.55,735.59,1183.42,748.18Zm128.66-155.24a118,118,0,0,1-15,28.62c-.37-4.8-.83-9.63-1.46-14.39.39-1,.75-2.06,1.14-3.11a99.56,99.56,0,0,0,16.55-14.93C1312.91,590.4,1312.5,591.67,1312.08,592.94Zm-14.47,40.59a151,151,0,0,0,11.33-16.38,114.75,114.75,0,0,0,15.59-45.73,52,52,0,0,0,2.18-6.37c5-18.68-2.32-36.34-11.35-50.72-12.06-27-33.76-47-58.35-62.14-2-1.89-4-3.67-6.09-5.41a134.29,134.29,0,0,0-60.38-28.4c-20.3-17.94-42.85-33.15-67.21-44.22-21-9.52-44.24-15.79-68.27-15.22a121.45,121.45,0,0,0-67.29,22.3,158.79,158.79,0,0,0-30.63,28.47,187.88,187.88,0,0,0-43.63,17.48c-22,12.39-41.66,31-54.52,53.92a113.43,113.43,0,0,0-13.18,35.8,96.61,96.61,0,0,0,1.39,38.62c5.54,24.48,15,47.91,25.58,69.79,1.93,4,3.91,7.81,5.93,11.66-6.61,19.76-11.43,40.28-12.35,60.48-1.13,24.65,4.11,49,19.91,65.68a75.81,75.81,0,0,0,22.32,16.15c-.9,8.93-.5,17.81,2.83,25.67a28.56,28.56,0,0,0,14.1,15.13,39.59,39.59,0,0,0,13,11.78c19.69,10.89,46.55,9.06,69.07,2.51,19.5-5.72,38.22-15.92,54.91-29.14,25.3,9.74,52.25,15.69,80.24,14.91a150.49,150.49,0,0,0,51.62-10.49,29,29,0,0,0,10.2-3.74,30.35,30.35,0,0,0,3.61-2.71c.5-.28,1-.47,1.49-.77,21.59-11.85,40.1-29.92,54.26-51C1287.85,715.77,1298.25,674.06,1297.61,633.53Z" transform="translate(-37.75 -272.12)" style="fill:#8f9496"/><path d="M488.54,1672.56c228.17,0,738.57,9.27,738.57,20.68S716.71,1714,488.54,1714s-450.79-9.27-450.79-20.74S260.42,1672.56,488.54,1672.56Z" transform="translate(-37.75 -272.12)" style="fill:#284e46"/><path d="M689.49,1050.5l101.42-70.15s40.53.11,53,12.63,61.88,97.45,61.88,97.45l-17,28.68-84.6,53.55-64.64,79.26L623.36,1389.25l-77.87-142-133.86-82.35,79.31-88.51s35.13-26.37,57.75-32,66.73-23.61,66.73-23.61Z" transform="translate(-37.75 -272.12)" style="fill:#fff"/><path d="M805.58,1020.61c6.78,10.15,13.68,20.19,20.63,30.23Q862.52,1103,901.93,1153c2.92,3.75,8.1-1.49,5.18-5.19q-11.16-14.22-22.17-28.68-38-50-73-102.19C809.33,1013,802.93,1016.64,805.58,1020.61Z" transform="translate(-37.75 -272.12)" style="fill:#357769"/><path d="M639.08,1006.49c15.83-6,124.37-23.11,134.68-24.93s22.83-1,22.83-1,2.09,22.89-31,85.71c-19.63,37.17-28.06,72.52-60.66,106.88-29.67,31.22-60.72,115.43-60.72,115.43s2.53-39,1-63.2-16.1-70.15-10.92-105.28-18.86-99.28-18.86-99.28S623.31,1012.56,639.08,1006.49Z" transform="translate(-37.75 -272.12)" style="fill:#357769"/><path d="M604.16,1029.43a194.79,194.79,0,0,1,12.52,69.11c-.06,10.81-1.16,21.61-.39,32.43.72,10.53,3.42,20.79,5.57,31,4.47,21.12,8.11,42.41,10.48,63.86,4.69,42.36,4.42,85.43-4.69,127.18-.6,2.87,3.81,4.08,4.42,1.22,2.2-10,3.86-20.19,5.12-30.34a.06.06,0,0,1,.06-.06c11.64-17.59,20.68-36.61,29.45-55.64,7.83-17,15.5-34,24.76-50.25a221.48,221.48,0,0,1,15.06-23.21A207.19,207.19,0,0,1,725.88,1173a120.65,120.65,0,0,0,19.25-24.32c5.29-9.16,9.6-18.81,14-28.4q14.57-31.44,29.07-62.93c1.21-2.65-2.76-5-4-2.32q-16.22,35.16-32.48,70.43c-4.36,9.38-8.83,18.75-14.62,27.36-6.07,9-14.12,16.26-21.56,24.15-12.63,13.24-22.72,28.63-31.38,44.68-16.33,30.11-28.08,62.65-45.89,91.93q1.49-15.37,1.65-30.83c.44-43.18-5.9-86.25-15.05-128.39-2.38-10.92-4.42-21.67-4.3-32.92.1-10.82.93-21.63.43-32.43a199,199,0,0,0-12.46-60.78C607.52,1025.51,603.11,1026.67,604.16,1029.43Z" transform="translate(-37.75 -272.12)" style="fill:#357769"/><path d="M623.36,1389.25l1.93-2.32a222.39,222.39,0,0,1,5.19-24c.82-2.87-3.59-4-4.42-1.22a222.77,222.77,0,0,0-5,23.22Z" transform="translate(-37.75 -272.12)" style="fill:#05996a"/><path d="M650.61,986.69c.33,15-19.31,29.07-19.31,29.07s42,88.74,54.27,86.42c19.42-3.7,112.73-97.34,92-120-32.26-35.41-28.4-73.8-28.4-73.8S650.16,962.37,650.61,986.69Z" transform="translate(-37.75 -272.12)" style="fill:#e1785a"/><path d="M640.07,982.23a192.26,192.26,0,0,1,19.58,38.49s28.57,10.92,52.17-4.63C765.21,980.85,759,920,759,920S626.61,961.71,640.07,982.23Z" transform="translate(-37.75 -272.12)" style="fill:#311717"/><path d="M702.06,934.46c25.37,16.38,58.46,2.7,68.61-3.91s1.16-17.93,7.39-20.35,5.08-12.8,3.75-20.85-4.91-18.48-2.2-25.87,11.31-11.75,11.31-20.29-8.94-11.7-11.31-17.93,6.61-10.92,5.85-20.57-22.18-13-19.86-18.86,1.54-16.77-9-20.63-8.16-3.53-10.48-14.45-21.45-9-27.3-6.62-12.46,0-19.69-5.84-15.39,0-21.62,5-15.94,2.75-20.24-2.32-17.15-3.14-24.93,6.62S619.5,748.77,609,750s-10.15,8.16-12.08,17.54S584.81,780.37,581,790.9,588.73,805,582.49,817s9.33,15.23,4.25,27.31,7.89,29.22,7.89,29.22S676.75,918.08,702.06,934.46Z" transform="translate(-37.75 -272.12)" style="fill:#311717"/><path d="M595.51,843.85c1.93-10.26,10.81-21.51,22.78-19.8,5.35.77,14.45,4.85,26.91-.94,11.53-5.4,21.46-9.37,34.25-9.21,18.92.28,40.43,27.47,47.6,43.08,1.59,3.47,2.59,9.15,6.5,10.69,3.59,1.39,7.5-1.15,9.66-3.85,5.68-7.17,6.12-17.6,14.83-22.67,6.34-3.7,12.3.16,16.44,5.29,27.69,34-5.9,59.95-5.9,59.95,1.93,56.64-53,103.08-90.67,100-73-6-79.09-114-82.51-128.94C592.59,865,593.14,856.2,595.51,843.85Z" transform="translate(-37.75 -272.12)" style="fill:#e1785a"/><path d="M693.79,916.59c1.21,2.37,3.3,3.92,6.12,3.2a1.7,1.7,0,0,0,.33-.16,6.08,6.08,0,0,0,3.37-1,5.41,5.41,0,0,0,1.81-2.92c2.65-4.85.56-13.13-5.62-13.4-.06,0-.11-.06-.22-.06s-.11.06-.22.06h-.61a5.78,5.78,0,0,0-4.63,2.15A9.48,9.48,0,0,0,693.79,916.59Z" transform="translate(-37.75 -272.12)" style="fill:#1b1818"/><path d="M608.69,930.88c2.64,3,7.61,3.31,9.87-.27a12.78,12.78,0,0,0,1.65-6.18c.06,0,0-.11,0-.17a.42.42,0,0,0,0-.38,4.62,4.62,0,0,0-1.27-3.2,4.83,4.83,0,0,0-.71-.72,6.72,6.72,0,0,0-9.82,1.6A7.77,7.77,0,0,0,608.69,930.88Z" transform="translate(-37.75 -272.12)" style="fill:#1b1818"/><path d="M649.5,953.27c2.09.11,4.19.28,6.28.39a3.92,3.92,0,0,0,.39-7.83c-2.1-.12-4.14-.22-6.23-.39a3.92,3.92,0,1,0-.44,7.83Z" transform="translate(-37.75 -272.12)" style="fill:#89331d"/><path d="M595,913.84a3.52,3.52,0,0,0,2,1.6,3.4,3.4,0,0,0,2.65-.33,81.84,81.84,0,0,0,15.06-14.57,3.51,3.51,0,0,0,0-4.85,3.66,3.66,0,0,0-2.43-1,3.52,3.52,0,0,0-2.42,1,84.65,84.65,0,0,1-6.62,7.39c-1.21,1.11-2.43,2.26-3.64,3.31-.61.55-1.27,1.05-1.88,1.55l-1,.82h-.06a2.24,2.24,0,0,1-.44.39,3.91,3.91,0,0,0-1.6,2A3.73,3.73,0,0,0,595,913.84Z" transform="translate(-37.75 -272.12)" style="fill:#311717"/><path d="M676.25,879.42a85.15,85.15,0,0,0,29.84,17,3.39,3.39,0,0,0,4.19-2.37,3.49,3.49,0,0,0-2.37-4.25,78,78,0,0,1-26.81-15.22,3.43,3.43,0,1,0-4.85,4.85Z" transform="translate(-37.75 -272.12)" style="fill:#311717"/><path d="M666.21,977.32c11.09.66,17.21,0,15.39-5.24s-9.1-10.54-21.12-8.05-9.66,13.29-9.66,13.29S655.12,976.71,666.21,977.32Z" transform="translate(-37.75 -272.12)" style="fill:#fff"/><path d="M691.75,801.94c-18.59-2.1-92.43,8.49-98.22,23.55s0,54.93,0,54.93,4.3-7.45,5.24-12.63.71-9.1,4.35-12.47,2.65-5,2-11.86,3.53-9.87,6.17-14.94c2.82-5.41,7-4.47,12.41-2.1s11.31,5.41,16.93,1.66,6.4-5.79,14.12-4.25,10.32-5.63,15-8,5,2.1,12,6.57,12.74-.22,16.22,1.65,2.81,9.43,10.15,15,8.66,1.27,10.53,10.7,13.62,12,13.62,12C730,855.43,710.39,804.08,691.75,801.94Z" transform="translate(-37.75 -272.12)" style="fill:#311717"/><path d="M585.08,988.13s-176.75,187.68-193.69,193-56.69-4.13-64.86-14.67-31-74.84-17.53-94.75,173.17-128,189.33-140.75c23.44-18.52,22.94-11,22.94-11Z" transform="translate(-37.75 -272.12)" style="fill:#fff"/><path d="M572,959.17c7.4,4.63,20,25.54,13.13,29S563,985.26,563,985.26,564.62,954.49,572,959.17Z" transform="translate(-37.75 -272.12)" style="fill:#1b1818"/><path d="M518.52,922.77c.88-.72,20.62-21.73,20.62-21.73s17.76-51.13,20.63-60c5.62-17.26,13.79-47.15,19.14-49.19s3.69-2.7,9.59-4.3c13.52-3.7,6,14.12,6,14.12s-5.3,7.83,0,18.36c6.45,12.91-2.43,28.24-1.11,41.81s10.26,53.5,8.11,67S563,985.26,563,985.26C493.14,942,511.46,928.4,518.52,922.77Z" transform="translate(-37.75 -272.12)" style="fill:#e1785a"/><path d="M472.46,1111.94c8.43-7.77,16.82-15.55,25.14-23.49q44-42,84.83-87.31c3-3.25-2-8-5-4.74q-11.51,12.74-23.28,25.31-41.7,44.34-86.7,85.43C464.24,1110.12,469.2,1114.86,472.46,1111.94Z" transform="translate(-37.75 -272.12)" style="fill:#f7dfcf"/><path d="M507.76,994.8a80.76,80.76,0,0,0,40.65,22c4.3.89,6.12-5.73,1.82-6.62A74.69,74.69,0,0,1,512.61,990C509.47,986.8,504.62,991.66,507.76,994.8Z" transform="translate(-37.75 -272.12)" style="fill:#357769"/><path d="M477.1,946.21A112.63,112.63,0,0,0,496,983.16c1.1,1.49,3.69,1.22,4.85,0,1.44-1.43,1.16-3.36,0-4.85A102.69,102.69,0,0,1,483.06,942C481.18,943.29,479.19,944.72,477.1,946.21Z" transform="translate(-37.75 -272.12)" style="fill:#357769"/><path d="M591.54,793.77c.55.44.71,4.19.49,5.79A52.81,52.81,0,0,1,590.6,806c-1.11,4-2.92,8.21-.66,12.18.93,1.71,2.59,3,3.53,4.75a12.56,12.56,0,0,1,1.21,5.67c.06,4.64-1.54,9-2.43,13.52a73.62,73.62,0,0,0-1.48,13.9c-.12,9.65,1.32,19.24,2.92,28.79,3,18,6.72,36.84.38,54.54-1.49,4.2,5.13,6,6.62,1.82,7.78-21.67,1.43-44.5-1.65-66.4-1.49-10.37-2.26-21.07-.06-31.38,1.88-8.88,5.08-18.59-1.38-26.47a6.68,6.68,0,0,1-1.82-2.65c-.33-1.16.22-2.43.55-3.53.67-2.27,1.38-4.52,1.88-6.84.72-3.75,1.65-8.16.44-11.91-1.27-4.14-4.91-5.74-9-4.86S588.06,791.07,591.54,793.77Z" transform="translate(-37.75 -272.12)" style="fill:#89331d"/><path d="M535.05,1587.13s-29.89-38.11-42.41-65.08-41.09-105.72-41.09-105.72-7.5,11.91-10.47,23.82-2.76,22.83-14,35.19-32,21.89-32,21.89l-102.64-34.47s-7.17,2.93-4.86-12.68,3.53-18.7,4.86-38.22,12.57-27.58,12.46-37.18-2.48-54.1,9.16-90,25.75-38.22,35.85-59.29,18.09-69.77,65.46-93.54C562.19,1058.11,645.8,1340.1,645.8,1340.1,646.4,1362.88,535.05,1587.13,535.05,1587.13Z" transform="translate(-37.75 -272.12)" style="fill:#37927d"/><path d="M293.39,1457.85s.61-3.09,1.27-13.67,31.27-23,63.75-5.85,40.65,39.27,40.65,39.27Z" transform="translate(-37.75 -272.12)" style="fill:#3c5265"/><path d="M294,1454.77l-12.91,66.12s102.86,46.22,105.45,24.88,12.52-68.17,12.52-68.17C335.42,1419.52,294,1454.77,294,1454.77Z" transform="translate(-37.75 -272.12)" style="fill:#e1785a"/><path d="M343.07,1604.5c-17,1.21-80.68-42.69-73.08-53.22s11.09-30.39,11.09-30.39,15.83-14.06,51.46-4.13,54,29,54,29v28.79S360,1603.35,343.07,1604.5Z" transform="translate(-37.75 -272.12)" style="fill:#fff"/><path d="M234.82,1667.87C153.74,1652.21,92,1684,101.3,1655s43.56-19.69,65.52-33.86S272,1545.76,272,1545.76c34,6.29,64.31,46.61,75.84,44s38.71-15.23,38.71-15.23l12.52,58.13S315.89,1683.48,234.82,1667.87Z" transform="translate(-37.75 -272.12)" style="fill:#fdc485"/><path d="M152.53,1627a136.79,136.79,0,0,1,29.29-1.6c2.92.17,2.92-4.41,0-4.58a138.5,138.5,0,0,0-30.5,1.76C148.45,1623,149.66,1627.39,152.53,1627Z" transform="translate(-37.75 -272.12)" style="fill:#cd8d2a"/><path d="M234.81,1690.38s147,1.49,155.91,0,16.16-9.22,14.62-14-6.29-43.73-6.29-43.73-25.59,2.64-43.9,3.69-62.76,18.31-92.1,18.31-132.8-4.19-144.88-4.69-20.36,4.69-21.4,14.62a34.9,34.9,0,0,0,2,16.76Z" transform="translate(-37.75 -272.12)" style="fill:#fff"/><path d="M357.41,1691c17.71-.06,30.84-.22,33.31-.66,8.89-1.5,16.16-9.22,14.62-14s-6.29-43.73-6.29-43.73-8.16.82-18.64,1.76c-6.28,15.55-12.79,31-19,46.6C360.06,1684.36,358.74,1687.73,357.41,1691Z" transform="translate(-37.75 -272.12)" style="fill:#f5f5fb"/><path d="M129.2,1679.29c-27.19-1.6-30.39,2.09-30.39,2.09s.94,5.35,30.61,7.89c16.66,1.38,105.4,1.1,105.4,1.1S156.39,1680.83,129.2,1679.29Z" transform="translate(-37.75 -272.12)" style="fill:#1b1818"/><path d="M470.09,1466.07c8.05,21.23,17,43.85,22.55,56,12.52,27,42.41,65.08,42.41,65.08s111.35-224.25,110.75-247c0,0-2.48-8.43-7.33-21.95-6.74,7.28-15,13.24-22.9,18.92-13.51,9.71-26.52,20-39.65,30.28-15.16,11.8-30.16,23.82-44.45,36.78-14.12,12.75-27.68,26.15-40.87,39.88Q480.19,1454.93,470.09,1466.07Z" transform="translate(-37.75 -272.12)" style="fill:#357769"/><path d="M411.52,1489.29a65.92,65.92,0,0,0,23.33-20.57c6.45-9.32,9.15-19.75,12-30.55a57.06,57.06,0,0,1,5-13.63,72.65,72.65,0,0,1,7.28-10.15c5.35-6.56,11.19-13.4,13.07-22,.93-4.24.72-8.55.6-12.9-.1-3.09-.49-7.45,2-9.82,1.54-1.43,3.92-1.76,5.85-2.43a33.62,33.62,0,0,0,5.57-2.42,33.15,33.15,0,0,0,8.6-7.06,54.3,54.3,0,0,0,10-18.86,104,104,0,0,0,26-47c1.44-5.74-7.39-8.17-8.83-2.43A94.85,94.85,0,0,1,509.14,1319c.49-3.14.93-6.29,1.37-9.37l10.26-70c.39-2.48-.55-4.91-3.2-5.63-2.15-.6-5.23.72-5.62,3.2l-11.36,77.32a160.42,160.42,0,0,1-3.7,19.53,4.08,4.08,0,0,0-.93,3c-2.38,7.28-6,14-12,18.31-3.2,2.37-6.84,3.2-10.48,4.63a14.84,14.84,0,0,0-8.93,9.49c-2.43,7.67.61,15.88-2.1,23.55-1.76,5.07-7.17,11.2-13.95,20-5.85,7.72-8.88,16.22-11.25,25.53s-5,17.93-10.59,25.82a55.88,55.88,0,0,1-19.75,17C401.65,1484.1,406.28,1492.05,411.52,1489.29Z" transform="translate(-37.75 -272.12)" style="fill:#357769"/><path d="M301.6,1384.94a114.89,114.89,0,0,1,60.28-3.3c19.36,4.19,41,13.45,52.62,30.33,1.65,2.43,5.57.17,3.91-2.32-5.29-7.72-12.41-13.78-20.4-18.64-27.8-16.93-62.88-20.84-94-11.63A30,30,0,0,1,301.6,1384.94Z" transform="translate(-37.75 -272.12)" style="fill:#357769"/><path d="M510.79,1533.74S568,1651.32,597.65,1669s87.31,10.37,108.87,9.87,69.61,9.87,104.68,5.73,71.26-4,108.65-39.37,63.15-183.49,65.47-217.41,4.68-225.85-7-259.76-75.94-83.06-127.4-65.86-142.57,152.44-161.43,164.14-26.75,26.91-36.62,49.13-26.36,31.61-45.88,41-2.71,29.22-16.05,51.45-20.52,16.38-35.74,36.23-23.39,21.13-40.93,36.35-7.38,21.62-7.38,21.62Z" transform="translate(-37.75 -272.12)" style="fill:#37927d"/><path d="M985.93,1244.75c-1.27-35.46-3.64-65.19-7.61-76.66-10.54-30.56-63.59-73.35-111.58-69.11,3.37,15.17,10,29.79,17.43,43.18a277.34,277.34,0,0,0,30.89,45.56A243.65,243.65,0,0,0,985.93,1244.75Z" transform="translate(-37.75 -272.12)" style="fill:#3c5265"/><path d="M573.5,1455.64c17.16,7.62,30.67,21.24,40.21,37.29a142.9,142.9,0,0,1,12.36,27.46c3.3,9.82,6.23,20.41,3.25,30.72-.83,2.87,3.58,4.08,4.41,1.22,3.14-10.76.5-21.84-2.92-32.21a154.29,154.29,0,0,0-12.63-28.63c-9.93-17-24.22-31.76-42.41-39.81C573.12,1450.52,570.8,1454.43,573.5,1455.64Z" transform="translate(-37.75 -272.12)" style="fill:#859bb8"/><path d="M574.05,1592.31q58.08-34.5,108.15-64.09c15.33-9.09,30.61-18.2,45.5-28,14.72-9.59,28.74-20,42.41-31A149.6,149.6,0,0,1,790,1455.42c7.17-4,14.83-5.84,22.56-8.21,7.5-2.27,14.55-5.41,20.18-11,4.91-4.85,8.44-10.86,11.58-16.93s6-12.46,9.76-18.31c4.36-6.73,10.48-12.08,16.38-17.43,7.28-6.61,14.23-13.62,20.79-20.9a5,5,0,0,0,1.94-.22,100.12,100.12,0,0,0,53.66-40.21c3.25-4.91-4.63-9.48-7.89-4.63a90.39,90.39,0,0,1-35.85,31.11.06.06,0,0,1,.06-.06,293.93,293.93,0,0,0,46.22-83.55c2-5.57-6.84-7.95-8.83-2.43a281.3,281.3,0,0,1-53.06,90.5c-5.24,6-10.7,11.75-16.43,17.32s-11.86,10.48-17.32,16.27c-10,10.65-14.34,24.38-22.22,36.46a34.09,34.09,0,0,1-14.34,12.68c-7.28,3.26-15.39,4.41-22.83,7.39-15.17,6.07-27.3,17-40,27-27.85,21.62-58.57,39.27-88.85,57.19q-48.06,28.47-96.07,56.92C564.34,1587.4,569,1595.29,574.05,1592.31Z" transform="translate(-37.75 -272.12)" style="fill:#357769"/><path d="M567.82,1574.49s5.4-5.13,5.29-15.6c-.22-16.22-3.58-25.1-15.16-43s-38.06-26-42.69-23.39-2.48,12.08-2.48,12.08Z" transform="translate(-37.75 -272.12)" style="fill:#3c5265"/><path d="M487.19,1544.49c9.54,3.92,55.71,53.72,58.79,49.64s21.46-18.36,21.84-19.63a26,26,0,0,0,0-5.24c-2.26-41.09-40.64-78-53.66-71.48s-47.76,36-47.76,36A179.41,179.41,0,0,0,487.19,1544.49Z" transform="translate(-37.75 -272.12)" style="fill:#e1785a"/><path d="M547.14,1592.81c-10.42,11.14-12.08,26.36-12.08,26.36s-117.8-30.44-103.74-53.27a88,88,0,0,1,35.08-32.16C498,1537.27,557.51,1581.72,547.14,1592.81Z" transform="translate(-37.75 -272.12)" style="fill:#fff"/><path d="M462.32,1630.26c29.29,5.84,80.08,37.11,80.08,37.11,11.14-29.61-6.45-57-15.22-66.34s-10.54-30.45-35.69-44.46-43.84-6.67-43.84-6.67-15.17,2.82-33.92,28.35c-22.17,30.22-19.8,54.93-19.8,54.93S433.09,1624.41,462.32,1630.26Z" transform="translate(-37.75 -272.12)" style="fill:#fdc485"/><path d="M400.05,1600a99.75,99.75,0,0,1,57-4.64c2.86.61,4.08-3.8,1.21-4.41a104.65,104.65,0,0,0-59.45,4.58C396.13,1596.62,397.29,1601.08,400.05,1600Z" transform="translate(-37.75 -272.12)" style="fill:#cd8d2a"/><path d="M379.2,1668.81s10.54-39.44,16.38-43.52,25.15-17.09,63.65-8.54c58.41,13,89.07,38.6,86.14,51.07a68.75,68.75,0,0,1-10.31,22.5Z" transform="translate(-37.75 -272.12)" style="fill:#fff"/><path d="M499.49,1664.12c-14.67-6.95-65.35-23-87.85-17.81a52.78,52.78,0,0,0-32.43,22.5s12,12.08,53.88,17.26,102,4.25,102,4.25S525.91,1676.58,499.49,1664.12Z" transform="translate(-37.75 -272.12)" style="fill:#1b1818"/><path d="M818,885.71s-16.54-67.78-22.39-75.94c-15.22-21-37.56-39-48.26-38.94s-24.76.5-24.76.5-4.25-1.33-8.83-2.93-16.26-3.58-18.8,3.75c-.94,2.7-9.65-1.87-12.3,4.53-3.37,8.1,7.94,19.41,7.94,19.41s-1,10.53,3.7,16.93,29.5,18.14,32.59,27.91S741.49,908.6,751,929.72s33.64,31.77,33.81,29.78C786.28,941,818,885.71,818,885.71Z" transform="translate(-37.75 -272.12)" style="fill:#e1785a"/><path d="M679.56,785.06a12.7,12.7,0,0,0,3.2,6.78c1.49,1.77,3.59,3.2,4.74,5.24,2.38,4.41.45,10.32,2.21,15.06,1.71,4.52,5.18,7.77,9.16,10.31,8.88,5.52,19.47,8,26,16.88,6.29,8.49,7.89,19.52,9.27,29.73,1.6,12.35,2.86,24.81,5.07,37.11,3.64,20.74,12.63,43.41,33.37,52.29,4.3,1.82,8.05-4.53,3.75-6.35-22.28-9.54-28.41-35-31.44-56.75-1.54-11.14-2.64-22.39-4.41-33.48-1.49-9.32-3.81-18.91-9.54-26.63-6-8.06-14.56-12.19-23.33-16.49-3.64-1.77-7.72-3.75-10-7.28-2.53-4-1.27-9.21-2.15-13.68-.94-5.07-4.52-7.39-7.44-11.2a4.49,4.49,0,0,1,4.52-7.33c2.26.44,4.41,1.21,6.56-.22,1.82-1.27,2-3.48,3.53-4.91,3.75-3.59,10.1-1.71,14.5-.61a124.84,124.84,0,0,1,53.73,29.07c3.47,3.25,8.65-2,5.18-5.19a133.14,133.14,0,0,0-48.59-28.57c-5.9-1.93-12.36-4-18.59-4.08-5,0-10.25,1.88-13.12,6.18a13.47,13.47,0,0,0-.78,1.21,15.06,15.06,0,0,0-2.64-.38,12.45,12.45,0,0,0-6.46,1.26A11.77,11.77,0,0,0,679.56,785.06Z" transform="translate(-37.75 -272.12)" style="fill:#89331d"/><path d="M781.81,976.05c6.73,3.25,110.14,166.28,155.25,204.88s88.25,17.21,115.82-12.29-2.37-84.33-35.07-117.81C984,1016.14,838.12,894.09,830,885.71s-11.91,0-11.91,0C791.08,922.49,775,972.79,781.81,976.05Z" transform="translate(-37.75 -272.12)" style="fill:#fff"/><path d="M807.23,988.07c-.88,4.69,6.35,6.13,7.23,1.49A207.9,207.9,0,0,1,851.8,904.9c-1.93-1.7-3.81-3.31-5.58-4.85A215.18,215.18,0,0,0,807.23,988.07Z" transform="translate(-37.75 -272.12)" style="fill:#357769"/></svg>